<svg width="16" height="25" viewBox="0 0 16 25" fill="none" xmlns="http://www.w3.org/2000/svg">
<path d="M0.260773 12.3584C0.306109 11.8616 0.339768 11.3635 0.398155 10.868C0.683912 8.45018 1.39006 6.18972 2.9995 4.26539C4.14733 2.89412 5.60977 1.94602 7.2721 1.28382C9.38848 0.440163 11.6203 0.118772 13.8898 0.00561523C13.9269 0.0098085 13.9635 0.0174313 13.9991 0.0283805C14.3672 1.67819 14.7395 3.34541 15.1036 4.97312C14.245 5.19341 13.4145 5.3521 12.6225 5.61992C11.022 6.15959 9.79583 7.12042 9.31292 8.77693C9.15906 9.30454 9.10685 9.86028 8.99969 10.4555H14.4112V24.4548H0.260773V12.3584Z" fill="#9D7C40"/>
</svg>
