<svg width="15" height="25" viewBox="0 0 15 25" fill="none" xmlns="http://www.w3.org/2000/svg">
<path d="M1.19899 24.7628C0.821182 23.0708 0.450938 21.4116 0.0800042 19.7525C0.724329 19.6185 1.35285 19.5107 1.96352 19.344C3.24256 18.9958 4.39176 18.4247 5.20095 17.3494C5.87412 16.4548 6.12485 15.4364 6.1118 14.3096L0.787525 14.3096L0.787526 0.32367L14.938 0.323671L14.938 0.699966C14.938 4.20782 14.9496 7.71568 14.9338 11.2235C14.9249 13.3119 14.7408 15.3789 13.9955 17.3648C13.016 19.9761 11.276 21.9098 8.70077 23.1277C6.63179 24.1093 4.42611 24.5218 2.15929 24.6959C1.85293 24.7233 1.54588 24.7401 1.19899 24.7628Z" fill="#9D7C40"/>
</svg>
