<svg width="126" height="126" viewBox="0 0 126 126" fill="none" xmlns="http://www.w3.org/2000/svg">
<g clip-path="url(#clip0_123_1810)">
<path d="M13.0377 0C13.7463 0.627839 14.3856 1.32957 14.9449 2.09323C15.6627 3.29454 16.2898 4.54771 16.8208 5.8423C16.9438 6.16259 17.1632 6.43683 17.4489 6.62712C17.7345 6.8174 18.0722 6.91434 18.4154 6.90454C20.044 7.06034 21.6621 7.31071 23.2615 7.65435C23.6351 7.75425 23.9838 7.93086 24.2852 8.17293C24.5867 8.415 24.8344 8.7172 25.0124 9.06025C25.0764 9.46079 25.0566 9.87022 24.9544 10.2627C24.8521 10.6553 24.6696 11.0224 24.4184 11.3409C23.2928 12.6844 21.9171 13.8091 20.6978 15.09C20.4161 15.4426 20.2817 15.8904 20.3226 16.3397C20.5102 17.8706 20.8541 19.4639 21.1042 20.9323C21.1042 21.9633 21.3856 23.0255 20.3851 23.7441C19.9639 24.0399 19.4617 24.1986 18.9469 24.1986C18.4321 24.1986 17.9299 24.0399 17.5087 23.7441C16.133 22.9943 14.7886 22.2445 13.3504 21.5884C12.8893 21.4009 12.3732 21.4009 11.9122 21.5884C10.4427 22.2757 9.00447 23.0568 7.56625 23.8378C7.17529 24.1065 6.71196 24.2504 6.23747 24.2504C5.76297 24.2504 5.29964 24.1065 4.90869 23.8378C4.53102 23.5498 4.25272 23.1512 4.11261 22.6975C3.97249 22.2439 3.97754 21.7579 4.12705 21.3072C4.47097 19.7451 4.65856 18.183 4.93995 16.5896C5.00451 16.2763 4.98342 15.9514 4.87889 15.649C4.77436 15.3467 4.59025 15.078 4.34591 14.8713C2.87643 13.3717 1.43821 11.8408 0 10.3412V9.0915C0.226559 8.63464 0.573171 8.24794 1.00274 7.97278C1.43231 7.69761 1.92868 7.54435 2.43871 7.52938C3.12655 7.52938 3.81439 7.21696 4.50223 7.2482C5.69358 7.37727 6.88947 7.04882 7.84743 6.32943C8.8054 5.61004 9.45375 4.55355 9.66104 3.37416C9.81885 2.68051 10.1129 2.02508 10.5262 1.44586C10.9394 0.866653 11.4637 0.375197 12.0685 0L13.0377 0Z" fill="#FFDA00"/>
<path d="M47.2737 0L48.1179 0.437392C48.9472 0.856409 49.6163 1.53538 50.0229 2.37042C50.4294 3.20547 50.551 4.15061 50.369 5.06124C50.1659 5.98528 49.6577 6.81422 48.9262 7.41485C48.1947 8.01548 47.2823 8.35292 46.3358 8.37292C45.3851 8.40962 44.4507 8.11949 43.6882 7.55093C42.9258 6.98238 42.3815 6.16978 42.1462 5.2487C41.9136 4.33262 41.9933 3.3652 42.3727 2.49947C42.7521 1.63374 43.4095 0.919113 44.241 0.468634C44.5224 0.468634 44.7725 0.156211 45.0539 0H47.2737Z" fill="black"/>
<path d="M105.834 0C106.463 0.649327 106.897 1.46261 107.085 2.34669C107.273 3.23077 107.208 4.14989 106.897 4.99876C106.675 5.33803 106.381 5.62352 106.035 5.83433C105.688 6.04515 105.299 6.17596 104.896 6.21721C104.519 6.13336 104.168 5.96252 103.869 5.71837C103.57 5.47423 103.333 5.16357 103.176 4.81131C102.739 3.12422 102.426 1.28093 104.114 0H105.834Z" fill="black"/>
<path d="M112.181 103.256C109.019 99.6706 104.963 96.9865 100.425 95.4763C99.2059 95.0702 97.924 94.789 96.6422 94.4766C95.3603 94.1641 94.3285 93.1644 94.5786 91.9459C94.8288 90.7275 95.9543 90.0402 97.5489 90.3526C103.841 91.5155 109.625 94.5797 114.12 99.1317C115.03 100.019 115.876 100.969 116.652 101.975C117.982 103.825 119.525 105.513 121.248 107.005C123.584 109.136 125.154 111.975 125.719 115.085C126.284 118.194 125.812 121.404 124.375 124.219C123.562 125.813 122.499 126.344 121.248 125.75C119.997 125.156 119.779 124.032 120.529 122.376C121.336 120.801 121.723 119.045 121.652 117.277C121.58 115.509 121.054 113.79 120.123 112.285C119.685 113.784 119.403 115.19 118.872 116.502C118.417 117.584 117.739 118.558 116.883 119.362C116.026 120.165 115.011 120.779 113.901 121.165C112.792 121.55 111.614 121.699 110.444 121.6C109.273 121.501 108.137 121.158 107.108 120.592C106.079 120.026 105.181 119.251 104.471 118.316C103.761 117.38 103.256 116.307 102.989 115.164C102.721 114.021 102.697 112.835 102.918 111.682C103.139 110.53 103.6 109.436 104.271 108.473C105.905 106.071 108.345 104.332 111.149 103.568L112.181 103.256ZM115.902 111.785C115.742 110.811 115.512 109.851 115.214 108.91C115.143 108.652 115.02 108.41 114.852 108.201C114.684 107.991 114.475 107.818 114.238 107.692C114.001 107.567 113.74 107.491 113.473 107.469C113.205 107.447 112.936 107.481 112.681 107.567C110.657 107.985 108.881 109.187 107.741 110.91C107.133 111.818 106.91 112.929 107.121 114.001C107.332 115.073 107.96 116.018 108.867 116.627C109.309 116.956 109.813 117.19 110.349 117.316C110.884 117.442 111.44 117.457 111.982 117.361C112.524 117.264 113.04 117.058 113.499 116.754C113.958 116.451 114.35 116.057 114.651 115.596C115.211 114.377 115.631 113.098 115.902 111.785Z" fill="black"/>
<path d="M67.4078 65.0776C66.9229 65.1109 66.4411 64.9771 66.0429 64.6986C65.6446 64.42 65.3539 64.0135 65.2193 63.5467C65.0525 63.0735 65.0729 62.5544 65.2763 62.0957C65.4796 61.6369 65.8507 61.2731 66.3136 61.0786C68.127 60.1413 69.9716 59.2978 71.8475 58.423L109.616 40.4275L110.398 40.0838C110.646 39.9615 110.916 39.8895 111.192 39.872C111.468 39.8545 111.745 39.8919 112.007 39.9819C112.269 40.072 112.51 40.2129 112.717 40.3966C112.923 40.5804 113.092 40.8032 113.212 41.0523C113.345 41.3101 113.423 41.5931 113.44 41.8829C113.456 42.1728 113.412 42.4628 113.308 42.7341C113.205 43.0055 113.046 43.2519 112.84 43.4574C112.635 43.6629 112.389 43.8228 112.118 43.9266C109.679 45.1451 107.178 46.301 104.708 47.457C92.7642 53.1639 80.7895 58.85 68.7835 64.5153C68.3383 64.7336 67.8786 64.9215 67.4078 65.0776Z" fill="black"/>
<path d="M52.5258 28.118C52.542 36.7085 50.808 45.2124 47.4296 53.1118L44.7407 59.3603C44.65 59.6446 44.5019 59.9074 44.3057 60.1325C44.1095 60.3575 43.8693 60.54 43.5998 60.6688C43.3304 60.7976 43.0374 60.8699 42.7389 60.8813C42.4404 60.8926 42.1428 60.8428 41.8643 60.7349C41.5701 60.6221 41.3047 60.4454 41.0873 60.2175C40.8699 59.9896 40.7058 59.7163 40.6071 59.4173C40.5083 59.1183 40.4774 58.8011 40.5163 58.4886C40.5553 58.1762 40.6633 57.8763 40.8325 57.6107C42.4583 53.393 44.3655 49.2378 45.7412 44.9263C48.6844 35.3521 49.0831 25.1773 46.898 15.4024C46.8145 15.1176 46.7916 14.8185 46.8308 14.5244C46.87 14.2302 46.9704 13.9475 47.1256 13.6945C47.2808 13.4415 47.4874 13.2238 47.7319 13.0554C47.9765 12.887 48.2536 12.7717 48.5455 12.7169C48.8373 12.662 49.1375 12.6689 49.4265 12.7371C49.7156 12.8052 49.9871 12.9332 50.2237 13.1126C50.4602 13.292 50.6565 13.519 50.8 13.7788C50.9434 14.0387 51.0307 14.3257 51.0563 14.6214C51.6817 19.089 52.2444 23.5254 52.8385 27.993L52.5258 28.118Z" fill="black"/>
<path d="M107.084 75.5437C107.084 77.1371 105.708 77.9494 103.957 77.4807C100.675 76.5122 97.423 75.4187 94.0776 74.7002C86.2284 73.082 78.1422 72.9759 70.2533 74.3877L64.0002 75.4812C62.3744 75.7312 61.3113 75.1063 61.1237 73.7941C60.9362 72.482 61.624 71.6072 63.3123 71.2948C69.7146 69.918 76.242 69.206 82.7907 69.1703C90.4956 69.3323 98.1216 70.7571 105.364 73.388C106.584 73.8566 107.084 74.4815 107.084 75.5437Z" fill="black"/>
<path d="M85.0102 23.0256H90.044C90.364 22.9868 90.6887 23.0202 90.9941 23.1233C91.2996 23.2264 91.578 23.3966 91.8089 23.6214C92.0399 23.8461 92.2175 24.1198 92.3287 24.4222C92.4398 24.7246 92.4818 25.048 92.4514 25.3687C92.4514 28.7429 92.4514 32.0858 92.4514 35.46C92.4818 35.7807 92.4398 36.1042 92.3287 36.4065C92.2175 36.7089 92.0399 36.9826 91.8089 37.2074C91.578 37.4321 91.2996 37.6023 90.9941 37.7054C90.6887 37.8085 90.364 37.8419 90.044 37.8032H80.1015C79.7704 37.8426 79.4346 37.8069 79.1192 37.6989C78.8037 37.5908 78.5167 37.4131 78.2793 37.179C78.042 36.9449 77.8606 36.6603 77.7484 36.3465C77.6363 36.0327 77.5963 35.6976 77.6316 35.3663C77.6316 32.0546 77.6316 28.7429 77.6316 25.4312C77.6316 23.8066 78.4445 23.0568 80.1015 23.0256H85.0102Z" fill="#18824C"/>
<path d="M52.3698 63.3281C51.6819 62.672 50.9316 62.2658 50.5876 61.6098C50.3866 61.2003 50.3391 60.7325 50.4538 60.2911C50.5686 59.8496 50.8379 59.464 51.2129 59.2041L56.6844 54.2678L71.2854 41.1148C72.9112 39.6465 74.0993 39.4902 75.0998 40.6462C76.1003 41.8022 75.6626 42.8957 74.1306 44.3016L54.5584 61.8597C53.8642 62.3998 53.1329 62.8905 52.3698 63.3281Z" fill="black"/>
<path d="M71.4105 23.1505C71.4105 24.3864 71.0438 25.5944 70.3567 26.622C69.6696 27.6496 68.693 28.4504 67.5504 28.9234C66.4078 29.3963 65.1505 29.52 63.9375 29.2789C62.7245 29.0378 61.6103 28.4427 60.7358 27.5689C59.8613 26.695 59.2657 25.5816 59.0245 24.3696C58.7832 23.1575 58.907 21.9011 59.3803 20.7594C59.8536 19.6176 60.655 18.6417 61.6834 17.9552C62.7117 17.2686 63.9207 16.9021 65.1574 16.9021C66.8158 16.9021 68.4063 17.5604 69.579 18.7322C70.7517 19.904 71.4105 21.4934 71.4105 23.1505ZM67.1897 23.1505C67.2241 22.6168 67.0464 22.091 66.6952 21.6874C66.3439 21.2837 65.8475 21.0349 65.3137 20.9948C65.0384 20.9691 64.7607 20.9981 64.4967 21.0801C64.2327 21.1621 63.9875 21.2955 63.7753 21.4727C63.5631 21.6499 63.3881 21.8673 63.2605 22.1123C63.1328 22.3574 63.0549 22.6253 63.0313 22.9006C63.0207 23.4335 63.2109 23.9509 63.5641 24.3502C63.9174 24.7495 64.408 25.0016 64.9385 25.0563C65.2081 25.0865 65.4809 25.0625 65.7411 24.9857C66.0012 24.9088 66.2432 24.7807 66.453 24.609C66.6628 24.4372 66.8361 24.2252 66.9626 23.9854C67.0891 23.7457 67.1663 23.4831 67.1897 23.213V23.1505Z" fill="black"/>
<path d="M115.683 88.1344C114.025 88.1551 112.426 87.5166 111.239 86.3595C110.051 85.2023 109.373 83.6212 109.352 81.964C109.331 80.3068 109.97 78.7093 111.128 77.5228C112.286 76.3363 113.869 75.6582 115.527 75.6375C116.348 75.6272 117.163 75.7787 117.926 76.0832C118.688 76.3877 119.384 76.8394 119.971 77.4124C120.559 77.9853 121.029 78.6684 121.352 79.4226C121.676 80.1767 121.848 80.9872 121.858 81.8078C121.869 82.6284 121.717 83.4429 121.412 84.2049C121.107 84.9669 120.655 85.6615 120.082 86.249C119.509 86.8365 118.825 87.3053 118.07 87.6288C117.316 87.9523 116.504 88.1241 115.683 88.1344ZM115.683 83.9167C115.978 83.9528 116.277 83.926 116.56 83.8382C116.843 83.7503 117.105 83.6032 117.327 83.4068C117.549 83.2104 117.727 82.9691 117.849 82.6988C117.971 82.4285 118.034 82.1355 118.034 81.839C118.034 81.5426 117.971 81.2496 117.849 80.9793C117.727 80.709 117.549 80.4677 117.327 80.2713C117.105 80.0748 116.843 79.9278 116.56 79.8399C116.277 79.752 115.978 79.7253 115.683 79.7614C115.144 79.7775 114.632 80.0008 114.253 80.3849C113.875 80.7691 113.659 81.2843 113.651 81.8234C113.647 82.0942 113.696 82.3632 113.796 82.6149C113.896 82.8667 114.045 83.0963 114.233 83.2907C114.422 83.4851 114.647 83.6404 114.896 83.7478C115.145 83.8552 115.412 83.9126 115.683 83.9167Z" fill="#344F5E"/>
<path d="M110.18 10.5286H109.179C108.62 10.5047 108.092 10.2681 107.702 9.86719C107.313 9.46631 107.092 8.93165 107.084 8.37293C107.076 7.82304 107.284 7.29192 107.665 6.89437C108.045 6.49683 108.566 6.2648 109.116 6.24845C109.854 6.17011 110.598 6.17011 111.336 6.24845C111.895 6.25666 112.428 6.48411 112.82 6.88164C113.211 7.27916 113.431 7.81485 113.431 8.37293C113.408 8.93419 113.172 9.46562 112.771 9.85994C112.371 10.2542 111.836 10.4821 111.274 10.4974L110.18 10.5286Z" fill="black"/>
<path d="M99.6754 10.5287H99.1751C97.5806 10.5287 96.5801 9.65387 96.5801 8.37294C96.5801 7.09201 97.5806 6.24846 99.1126 6.24846C99.7161 6.20168 100.322 6.20168 100.926 6.24846C101.194 6.25236 101.459 6.3101 101.704 6.41825C101.95 6.52641 102.171 6.68277 102.355 6.87805C102.538 7.07332 102.681 7.30352 102.774 7.55496C102.867 7.8064 102.908 8.07395 102.896 8.3417C102.897 8.88414 102.69 9.4064 102.318 9.80141C101.946 10.1964 101.437 10.4343 100.895 10.4662L99.6754 10.5287Z" fill="black"/>
<path d="M115.682 51.456C115.682 53.5492 114.994 54.5802 113.587 54.5802C112.18 54.5802 111.43 53.5492 111.43 51.456C111.43 49.3628 112.118 48.3318 113.524 48.3318C114.931 48.3318 115.682 49.2378 115.682 51.456Z" fill="black"/>
<path d="M115.494 32.6482C115.526 33.012 115.526 33.3779 115.494 33.7417C115.47 34.2585 115.25 34.7467 114.878 35.1067C114.506 35.4667 114.011 35.6713 113.493 35.6787C112.976 35.6981 112.47 35.5226 112.077 35.187C111.683 34.8513 111.43 34.3801 111.367 33.8666C111.273 32.9735 111.273 32.073 111.367 31.1798C111.436 30.6664 111.69 30.1957 112.081 29.8562C112.473 29.5168 112.975 29.332 113.493 29.3365C114.011 29.3588 114.503 29.5725 114.873 29.9361C115.242 30.2997 115.464 30.7874 115.494 31.3048C115.525 31.752 115.525 32.2009 115.494 32.6482Z" fill="black"/>
<path d="M103.801 34.3665C104.145 33.9916 104.457 33.1793 105.02 32.9606C105.712 32.6809 106.486 32.6809 107.177 32.9606C107.948 33.4432 108.608 34.0818 109.116 34.8351C109.449 35.2301 109.622 35.7356 109.6 36.2517C109.578 36.7677 109.363 37.2567 108.997 37.622C108.632 37.9872 108.142 38.2021 107.626 38.224C107.109 38.246 106.603 38.0735 106.208 37.7407C105.593 37.3783 105.06 36.8906 104.646 36.3093C104.231 35.7281 103.943 35.0661 103.801 34.3665Z" fill="black"/>
<path d="M122.81 44.0516C120.715 44.0516 119.684 43.3955 119.684 41.9896C119.684 40.5837 120.715 39.8651 122.81 39.8651H123.904C124.182 39.861 124.458 39.912 124.716 40.0154C124.973 40.1187 125.208 40.2722 125.406 40.467C125.604 40.6618 125.761 40.894 125.868 41.15C125.975 41.406 126.031 41.6808 126.031 41.9583C126.039 42.2329 125.992 42.5063 125.891 42.762C125.791 43.0178 125.64 43.2505 125.447 43.4462C125.254 43.6419 125.023 43.7964 124.769 43.9005C124.515 44.0045 124.242 44.0559 123.967 44.0516H122.81Z" fill="black"/>
<path d="M122.904 49.8002C122.685 50.0814 122.373 50.8937 121.81 51.1124C121.469 51.2594 121.102 51.3352 120.731 51.3352C120.36 51.3352 119.993 51.2594 119.653 51.1124C118.835 50.6394 118.156 49.9608 117.683 49.1441C117.536 48.8091 117.461 48.4474 117.461 48.0819C117.461 47.7163 117.536 47.3547 117.683 47.0196C117.884 46.7274 118.144 46.4795 118.445 46.2914C118.746 46.1033 119.082 45.979 119.434 45.9262C120.622 45.645 122.904 48.0194 122.904 49.8002Z" fill="black"/>
<path d="M102.926 13.4654C102.895 13.0599 102.895 12.6525 102.926 12.247C103.01 11.7367 103.28 11.2756 103.684 10.9526C104.088 10.6295 104.598 10.4674 105.114 10.4974C105.61 10.5043 106.086 10.6979 106.445 11.0397C106.804 11.3814 107.021 11.846 107.053 12.3407C107.1 13.1523 107.1 13.966 107.053 14.7776C106.991 15.2848 106.745 15.7516 106.362 16.0902C105.979 16.4287 105.485 16.6156 104.974 16.6156C104.462 16.6156 103.969 16.4287 103.586 16.0902C103.203 15.7516 102.957 15.2848 102.895 14.7776C102.863 14.3199 102.863 13.8606 102.895 13.403L102.926 13.4654Z" fill="black"/>
<path d="M118.808 38.1155C118.558 37.9281 117.745 37.5844 117.527 37.0221C117.38 36.687 117.305 36.3254 117.305 35.9598C117.305 35.5943 117.38 35.2326 117.527 34.8976C118.055 34.078 118.747 33.376 119.559 32.8356C119.862 32.6526 120.206 32.5505 120.56 32.5392C120.914 32.5278 121.265 32.6075 121.579 32.7706C121.893 32.9338 122.159 33.1749 122.353 33.4708C122.547 33.7667 122.661 34.1074 122.685 34.4602C122.491 35.3926 122.015 36.243 121.322 36.8967C120.629 37.5503 119.751 37.9758 118.808 38.1155Z" fill="black"/>
<path d="M21.6363 35.3975L15.6333 53.6429C15.4478 54.2434 15.4478 54.8858 15.6333 55.4862C19.0496 66.2052 24.3426 76.2333 31.266 85.1039C37.8594 93.2856 46.4833 99.5979 56.2784 103.412L77.4765 95.57C77.4765 95.57 50.0253 84.3541 38.2695 69.1391C20.1042 45.8324 21.6363 35.3975 21.6363 35.3975Z" fill="#9D7D41"/>
<path d="M11.3502 78.1056C11.3502 78.1056 5.09711 99.1629 3.34625 109.879C1.97056 118.314 -0.71827 121.626 2.18942 123.969L26.0137 114.94L16.1651 102.568L11.3502 78.1056Z" fill="#9D7D41"/>
<path d="M0 123.001C0.750372 120.126 1.50074 117.252 2.21985 114.378C2.93896 111.504 3.47047 109.223 4.15831 106.661C4.21909 106.33 4.36011 106.019 4.56905 105.754C4.77799 105.49 5.0485 105.281 5.35694 105.146C5.66537 105.01 6.00235 104.952 6.33842 104.976C6.67449 105.001 6.99944 105.107 7.28486 105.286C7.68268 105.551 7.98141 105.94 8.13418 106.392C8.28697 106.844 8.28515 107.335 8.12903 107.786C7.09727 111.91 6.12804 116.034 5.00248 120.283L22.1672 113.784C20.4164 111.66 18.603 109.692 17.071 107.536C13.5156 102.39 11.4789 96.3493 11.1931 90.1027C10.9742 86.791 10.6615 83.4793 10.4114 80.1676C10.4114 78.5431 11.068 77.5433 12.4124 77.5121C13.7568 77.4808 14.4759 78.3556 14.601 79.9177C15.1012 84.854 15.2888 89.8215 16.133 94.6953C17.3924 101.415 21.0746 107.44 26.4819 111.629C26.7931 111.752 27.1399 111.752 27.4511 111.629L51.338 103.099L50.3062 102.506C41.6844 98.3066 34.1307 92.2039 28.2159 84.659C22.3012 77.1141 18.1801 68.3244 16.1643 58.9542C15.927 57.7557 15.7496 56.5462 15.6328 55.3301C15.5544 55.0417 15.5387 54.7399 15.5867 54.445C15.6348 54.1501 15.7455 53.8689 15.9113 53.6203C16.0772 53.3717 16.2944 53.1614 16.5484 53.0037C16.8023 52.8459 17.0871 52.7443 17.3836 52.7057C18.5717 52.5495 19.4471 53.4243 19.8223 54.7989C20.7316 59.0293 21.8905 63.2022 23.2928 67.2958C26.2202 74.7761 30.6605 81.5724 36.3361 87.2599C42.0117 92.9474 48.8004 97.4037 56.2779 100.35C56.715 100.56 57.2079 100.626 57.6849 100.538L71.6918 95.2577C68.7841 93.7268 65.8764 92.4771 63.0938 90.915C52.7727 84.867 43.6143 77.0273 36.0491 67.7645C30.9296 61.9496 26.7138 55.3989 23.5429 48.3318C22.0383 45.179 21.2483 41.7334 21.2293 38.2405C21.2341 36.9639 21.5235 35.7043 22.0766 34.5534C22.6297 33.4025 23.4325 32.3893 24.4267 31.5874C25.4208 30.7854 26.5813 30.215 27.8238 29.9175C29.0663 29.62 30.3595 29.603 31.6094 29.8676C31.9104 29.8754 32.2059 29.9488 32.4754 30.0828C32.7449 30.2168 32.9818 30.4081 33.1695 30.6433C33.3572 30.8785 33.4911 31.1518 33.5619 31.4442C33.6327 31.7366 33.6385 32.0409 33.5792 32.3358C33.5326 32.6265 33.4252 32.9042 33.264 33.1506C33.1027 33.3971 32.8913 33.6067 32.6434 33.766C32.3956 33.9252 32.1169 34.0304 31.8256 34.0746C31.5343 34.1189 31.2369 34.1012 30.9529 34.0228C30.2598 33.8456 29.5339 33.8396 28.838 34.0053C28.142 34.171 27.4969 34.5035 26.9583 34.9741C26.4197 35.4446 26.0037 36.0391 25.7464 36.7062C25.4891 37.3732 25.3982 38.0929 25.4814 38.8029C25.6953 41.21 26.2424 43.5757 27.1072 45.8324C29.8258 52.387 33.5959 58.4547 38.269 63.7967C46.4968 74.078 56.7297 82.5813 68.3464 88.7905C71.2392 90.4331 74.4255 91.4945 77.7261 91.9147C83.2288 92.4459 84.1355 89.634 83.5414 85.2914C83.2313 83.7335 82.8134 82.1989 82.2908 80.6988C81.7906 79.1367 82.2908 78.0119 83.5102 77.5745C84.7295 77.1372 85.7613 77.7932 86.2928 79.2929C87.5502 82.4549 87.9806 85.8848 87.5434 89.2591C87.3983 90.7392 86.8283 92.1458 85.902 93.3098C84.9757 94.4737 83.7325 95.3454 82.3221 95.82L62.7499 103.099L3.533 125.531C1.68834 126.25 1.18809 126.063 0 124.5V123.001Z" fill="black"/>
</g>
<defs>
<clipPath id="clip0_123_1810">
<rect width="126" height="126" fill="white"/>
</clipPath>
</defs>
</svg>
