<svg width="47" height="44" viewBox="0 0 47 44" fill="none" xmlns="http://www.w3.org/2000/svg">
<path fill-rule="evenodd" clip-rule="evenodd" d="M14.4282 1.67335C17.2637 0.568085 20.3028 -0.000520341 23.3718 3.57297e-07C29.5696 3.57297e-07 35.5137 2.31752 39.8966 6.44283C44.2795 10.5681 46.7424 16.1634 46.7435 21.998C46.7435 24.8874 46.139 27.7484 44.9644 30.4178C43.7899 33.0872 42.0683 35.5127 39.898 37.5558C37.7278 39.5988 35.1513 41.2195 32.3157 42.3252C29.4801 43.4309 26.441 44 23.3718 44C17.1732 44 11.2285 41.6819 6.84543 37.5558C2.46239 33.4296 0 27.8333 0 21.998C0 19.1089 0.604643 16.248 1.77923 13.5788C2.95382 10.9096 4.67542 8.48442 6.84574 6.44167C9.01606 4.39891 11.5926 2.77863 14.4282 1.67335ZM15.3915 40.1369C17.9191 41.1221 20.6279 41.6294 23.3634 41.6299H23.3717C26.1071 41.6294 28.8156 41.1221 31.3429 40.1369C33.8727 39.1506 36.1714 37.7049 38.1076 35.8822C40.0438 34.0594 41.5796 31.8955 42.6272 29.5139C43.6748 27.1323 44.2137 24.5797 44.2132 22.002C44.2143 16.797 42.0193 11.8048 38.1109 8.1232C34.2025 4.44163 28.9008 2.37222 23.3718 2.37011C17.841 2.37011 12.5366 4.43847 8.6257 8.12016C4.7148 11.8018 2.51766 16.7953 2.51766 22.002C2.51766 24.5799 3.05711 27.1325 4.10518 29.5142C5.15325 31.8958 6.68947 34.0597 8.62601 35.8824C10.5625 37.7051 12.8614 39.1508 15.3915 40.1369ZM9.46208 21.1526C9.46117 21.1539 9.46025 21.1551 9.45933 21.1563L9.44244 21.1127C9.44904 21.126 9.45558 21.1394 9.46208 21.1526ZM10.6823 20.3068C10.1877 20.4546 9.75883 20.752 9.46208 21.1526C10.3244 22.9124 10.359 23.7875 9.98648 25.2415C9.40452 25.0859 8.87229 24.7976 8.43684 24.4022C8.0014 24.0068 7.67608 23.5165 7.48983 22.9746C8.30796 22.6808 8.41346 22.5141 8.61589 21.9821C7.58268 22.8992 6.14879 22.4228 6.14879 22.4228C7.03201 22.2997 7.23304 21.1653 7.45416 19.9175C7.76094 18.1864 8.10638 16.237 10.366 16.4677C13.4192 16.7734 12.7867 22.2918 12.2132 24.0108C11.6396 25.7298 11.3823 27.437 11.8209 28.9773C12.2595 30.5177 13.5289 30.0135 13.6892 29.3743C13.356 24.654 15.6249 22.4546 16.3081 21.7955C17.5741 22.2292 19.1489 21.814 20.3403 21.4999C20.5339 21.4488 20.7175 21.4005 20.8879 21.3588C12.3438 20.2393 11.2179 14.443 11.2179 14.443L12.5168 14.6614C10.3829 11.4258 14.5157 9.14697 14.5157 9.14697C14.5044 9.48825 14.4748 9.82878 14.4272 10.1673C16.2026 7.6582 18.5642 8.90083 18.8932 9.13109C14.7983 13.0217 20.0782 15.5983 22.7266 16.0945C25.375 16.5908 26.7836 17.8771 27.9897 19.2706C27.5471 18.3984 26.9106 17.6259 26.1233 17.0054C25.3361 16.3848 24.4165 15.9307 23.4266 15.6737C23.4266 15.6737 23.3508 15.6737 23.7725 15.2767C22.6991 14.6844 21.7969 13.8527 21.1452 12.855L21.8621 12.458C21.8621 12.458 23.5616 14.2882 24.6623 14.84C25.7819 15.3929 26.5238 15.6106 27.147 15.7934C28.0051 16.0452 28.6383 16.2309 29.7229 17.1347C28.8078 16.2426 27.663 15.5889 26.3998 15.237C21.7103 13.387 21.8325 9.17079 21.9253 8.83333C24.4795 9.28993 25.6805 10.8531 26.8506 12.376C26.9421 12.4951 27.0334 12.6139 27.1251 12.7319C25.9819 10.0854 24.361 9.15909 23.2596 8.52969C22.6262 8.16772 22.1646 7.90395 22.0645 7.46764C21.7904 6.27266 21.3687 5.99475 21.3687 5.99475C21.3687 5.99475 23.4689 5.80022 24.6328 7.38824C24.6328 7.38824 24.6201 6.82052 25.5648 6.51482C25.5584 6.76166 25.6491 7.00201 25.8196 7.18963C25.9901 7.37726 26.2283 7.4989 26.4883 7.53116C27.4246 7.63438 29.2844 7.86464 29.4615 9.09933C29.4615 9.09933 31.9496 8.28546 31.9496 12.1602C31.1201 11.7768 30.2159 11.5579 29.2928 11.5171C29.2795 11.5788 29.261 11.6412 29.2419 11.7061C29.08 12.2544 28.8672 12.9754 31.2242 14.8996C32.8394 16.1779 33.5564 19.8304 32.3924 21.0492C31.9544 20.5282 31.3288 20.1765 30.6339 20.0606C31.1568 20.9618 31.8484 23.5304 29.4235 25.1542C29.356 24.7254 28.2723 23.1374 27.3951 22.8833C27.5427 23.6059 28.0572 26.4444 23.1779 27.3655C23.4351 26.1943 20.8584 22.4109 17.3286 25.6504C18.3745 25.0668 21.9127 23.8838 22.6717 28.3501C22.9543 31.5777 18.2732 32.3916 18.0624 32.4035C17.8515 32.4154 20.6307 33.5786 22.1025 33.126C23.5743 32.6734 24.6412 32.5663 25.2612 33.5707C25.2619 33.5707 25.2642 33.5703 25.2677 33.5696C25.3226 33.5594 25.6953 33.4904 25.9527 33.9677C26.2269 34.4758 25.548 34.9483 25.4931 34.9046C24.9322 33.666 23.9411 34.7339 23.9411 34.7339C23.8473 34.6125 23.7205 34.5171 23.5741 34.4576C23.4276 34.3981 23.2668 34.3768 23.1086 34.3959C22.9504 34.415 22.8006 34.4737 22.6747 34.566C22.5489 34.6583 22.4518 34.7807 22.3934 34.9205C20.1077 33.6779 15.4055 34.6466 14.8573 34.9205C14.3737 33.9286 14.4276 33.4633 14.4816 32.9978C14.4987 32.8503 14.5157 32.7028 14.5157 32.5385C11.8892 32.3998 11.2161 31.0904 10.333 29.3721L10.328 29.3624C9.77281 28.2913 10.4625 25.4259 11.0278 23.0776C11.3299 21.8226 11.5965 20.7153 11.6185 20.1083C11.6817 18.3654 10.4082 16.9799 9.46777 17.9962C8.43034 19.1157 9.79245 20.0646 10.6823 20.3068ZM35.2981 16.428C35.419 16.7937 35.455 17.1796 35.4036 17.5595H35.4161C35.1735 17.5616 34.9348 17.5026 34.7245 17.3888C34.5385 17.3027 34.3928 17.1551 34.315 16.9742C34.2372 16.7934 34.2328 16.5918 34.3028 16.4082C34.3829 15.3124 35.4372 14.9988 35.762 15.1497C35.5268 15.2676 35.348 15.4652 35.2619 15.7026C35.1757 15.94 35.1887 16.1993 35.2981 16.428ZM30.7055 24.8048C31.7641 23.9036 31.7303 22.4228 31.7303 22.4228L31.7093 22.4307C31.7093 22.4307 32.8394 21.5772 34.0709 20.7236C35.3023 19.8701 35.7113 18.2939 35.7577 17.5793C35.589 16.162 36.0108 15.8008 36.5337 15.5308C36.9021 14.814 37.3873 14.9327 38.0257 15.0888C38.1546 15.1204 38.2898 15.1534 38.4315 15.1814C37.4025 15.0703 36.9976 15.7491 37.2211 15.8643C37.3766 15.9444 37.4361 16.1723 37.4963 16.4026C37.5227 16.5034 37.5491 16.6046 37.5838 16.694C37.7387 16.6826 37.8942 16.707 38.0368 16.7652C38.1794 16.8233 38.3048 16.9133 38.4019 17.0275C39.636 17.0275 39.5256 18.0511 39.4661 18.6023L39.4647 18.6155C39.454 18.5109 39.4191 18.4097 39.3624 18.3192C39.3057 18.2287 39.2285 18.1509 39.1364 18.0915C39.0443 18.0321 38.9396 17.9924 38.8294 17.9752C38.7193 17.9581 38.6064 17.9639 38.4989 17.9922C38.4437 18.2748 38.2192 18.3368 37.9038 18.4239C37.8337 18.4433 37.759 18.4639 37.6808 18.4885C37.2506 18.6235 37.162 19.481 37.6386 20.2115C38.1151 20.942 37.8368 21.2953 37.5289 21.4779C37.6438 21.7432 37.8263 21.9777 38.0603 22.1608C36.8722 22.0811 36.8268 21.7233 36.7797 21.3516C36.754 21.1494 36.7279 20.9431 36.5168 20.7752C35.7071 20.1202 34.3113 21.8948 33.5648 22.8476C33.1414 23.3392 32.8804 23.9368 32.8141 24.5666C31.2791 25.3964 30.7055 24.8048 30.7055 24.8048ZM29.7734 33.0686C29.7805 33.0679 29.7875 33.0672 29.7947 33.0665L29.7862 33.1022C29.782 33.091 29.7778 33.0798 29.7734 33.0686ZM28.7235 32.598C28.8859 32.9783 29.2129 33.1224 29.7734 33.0686C29.2048 31.5971 27.3615 29.8254 26.5895 29.0833C26.4899 28.9875 26.408 28.9089 26.3491 28.8503C26.4794 28.7273 26.5574 28.5637 26.5682 28.3904C26.5791 28.217 26.5222 28.0459 26.4082 27.9094C26.2376 27.8722 26.0586 27.8913 25.9012 27.9636C25.7438 28.0359 25.6175 28.1569 25.5437 28.3064C25.5437 28.3064 25.4298 28.0801 25.0798 27.5124C28.289 26.2896 28.0318 24.2371 28.0318 24.2371C28.0318 24.2371 28.3439 24.2768 28.8205 25.4996C29.0084 25.9624 29.0383 26.469 28.906 26.9486C28.7737 27.4282 28.4858 27.857 28.0824 28.1754C27.8505 28.3421 30.8658 31.8437 32.131 33.1062C32.2449 33.1975 32.3292 33.2531 32.3882 33.2531C33.0803 33.1966 33.2055 33.0457 33.3371 32.8871C33.4092 32.8002 33.4832 32.711 33.6534 32.6337C33.9064 32.5107 34.577 32.5266 34.7499 32.9474C34.7368 32.9527 34.7237 32.9642 34.711 32.9753C34.695 32.9894 34.6796 33.003 34.6655 33.003C34.877 33.286 34.9876 33.6249 34.9815 33.9709C34.9755 34.3168 34.853 34.6521 34.6318 34.9284C34.5601 34.5989 34.3787 34.321 33.7883 34.0788L33.6534 34.0471C32.8614 33.8581 32.1358 34.2697 31.635 34.5538C31.5571 34.598 31.4847 34.6391 31.4182 34.6744C29.4572 33.8208 28.074 34.4679 27.6523 34.9523C27.2559 33.9994 27.783 33.3881 28.1457 33.3642C28.1277 33.2116 28.2023 33.1403 28.3514 32.9979C28.4466 32.9069 28.5722 32.7868 28.7235 32.598ZM12.0107 27.0558C12.0905 26.429 12.2102 25.8072 12.3692 25.1939H12.3818C12.3904 25.1845 12.3952 25.1725 12.3952 25.1601C12.3952 25.1532 12.3937 25.1465 12.3909 25.1402C13.6528 27.0585 13.2279 28.0287 12.9651 28.6287C12.9546 28.6529 12.9442 28.6764 12.9343 28.6994C13.0861 28.0722 12.3396 27.2504 12.0107 27.0558ZM9.92748 9.38524C6.36853 12.7356 4.36914 17.2797 4.36914 22.0178C4.36914 26.756 6.36853 31.3001 9.92748 34.6505C13.4864 38.0008 18.3134 39.883 23.3465 39.883C28.3797 39.883 33.2066 38.0008 36.7656 34.6505C40.3246 31.3001 42.3239 26.756 42.3239 22.0178C42.3239 17.2797 40.3246 12.7356 36.7656 9.38524C33.2066 6.03487 28.3797 4.15265 23.3465 4.15265C18.3134 4.15265 13.4864 6.03487 9.92748 9.38524ZM15.9116 15.6817C15.8778 15.7293 15.9032 15.773 15.9622 15.773V15.7769C17.7208 15.7849 23.2706 16.9481 23.4983 22.5578C23.5001 22.5719 23.507 22.5851 23.5177 22.5952C23.5284 22.6053 23.5424 22.6117 23.5574 22.6134H23.8906C23.9056 22.6145 23.9205 22.6102 23.9323 22.6014C23.944 22.5925 23.9517 22.5798 23.9538 22.5657C24.3966 19.342 22.3934 17.5674 20.2849 16.6106C19.3449 16.1921 18.3533 15.8853 17.3328 15.6975C16.8804 15.6067 16.4227 15.5404 15.9622 15.499C15.9116 15.4951 15.882 15.5308 15.9116 15.6142C15.9166 15.6248 15.9192 15.6363 15.9192 15.6479C15.9192 15.6595 15.9166 15.671 15.9116 15.6817ZM26.4142 8.53141C26.4122 8.53016 26.4102 8.5289 26.4082 8.52764V8.51176C26.4102 8.51841 26.4122 8.52496 26.4142 8.53141ZM26.4142 8.53141C26.513 8.8444 26.6863 8.92452 26.8951 9.02106C27.0134 9.07574 27.143 9.13569 27.277 9.24622C27.2642 9.36295 27.2917 9.48046 27.3557 9.58121C27.4196 9.68195 27.5165 9.76052 27.6318 9.80518C27.7471 9.84984 27.8746 9.8582 27.9953 9.82901C28.1161 9.79982 28.2236 9.73465 28.3018 9.64322C28.4747 9.35738 28.3439 8.84921 27.6312 8.84921C27.1999 8.86761 26.7737 8.75627 26.4142 8.53141ZM18.5652 18.6617C20.4434 19.1665 22.0502 19.5984 22.6128 21.7399V21.7439C22.6128 21.7353 22.6351 21.7092 22.6669 21.6719C22.6938 21.6404 22.7275 21.6009 22.7603 21.5573C22.6717 20.6879 21.7778 18.4369 16.8225 17.4523C14.9652 17.0488 14.7767 16.0395 14.6675 15.4546C14.6574 15.4007 14.648 15.3504 14.6381 15.3045L14.423 15.233C14.423 15.233 14.1235 17.0751 16.4851 18.0121C17.1896 18.292 17.8947 18.4815 18.5652 18.6617Z" fill="#9D7C40"/>
</svg>
