<svg xmlns="http://www.w3.org/2000/svg" viewBox="0 0 38.63 31.45" fill="#9d7c40"><g id="Layer_2" data-name="Layer 2"><g id="Layer_1-2" data-name="Layer 1"><path d="M0,29c.13-.7.23-1.42.4-2.12a13.44,13.44,0,0,1,26.21.64c.14.72.17,1.46.26,2.19a1.51,1.51,0,0,1-1,1.71H1a1.69,1.69,0,0,1-1-1Z"/><path d="M20.78,7.36A7.37,7.37,0,1,1,13.27,0,7.34,7.34,0,0,1,20.78,7.36Z"/><path d="M24.13,18.2a9,9,0,0,1,3.94-1.29,9.64,9.64,0,0,1,9.72,5.67,9.14,9.14,0,0,1,.84,3.89,1.28,1.28,0,0,1-1.3,1.34c-2.6,0-5.2,0-7.81,0-.23,0-.28-.09-.32-.3A16,16,0,0,0,25,19.13Z"/><path d="M34.44,9.89A5.47,5.47,0,1,1,29,4.42,5.45,5.45,0,0,1,34.44,9.89Z"/></g></g></svg>