<svg xmlns="http://www.w3.org/2000/svg" viewBox="0 0 38.16 38.17"><defs><style>.cls-1{fill:#9d7d41;}</style></defs><g id="Layer_2" data-name="Layer 2"><g id="Layer_1-2" data-name="Layer 1"><path class="cls-1" d="M9.24,0H29.37a.52.52,0,0,0,.13.06A5.56,5.56,0,0,1,34.29,5.8a33.3,33.3,0,0,1-.72,6.76c-.67,3.11-1.42,6.19-2.15,9.28a56.67,56.67,0,0,0-1.49,8.27c0,.44-.06.88-.1,1.35h-.48c-3.46,0-6.93,0-10.39,0a1.14,1.14,0,0,0-1.27,1.2c0,.22,0,.44,0,.66a5.57,5.57,0,0,1-11.1-.74,43.09,43.09,0,0,1,1.32-9.72c.83-3.67,1.73-7.34,2.51-11A24.9,24.9,0,0,0,11,4.14,6.34,6.34,0,0,0,9.24,0ZM22.32,8.94H15.25a1.11,1.11,0,0,0-.27,2.2,1.91,1.91,0,0,0,.48,0h14A1.12,1.12,0,1,0,29.36,9Zm-.8,6.71h7a1.15,1.15,0,0,0,1.17-.74,1.13,1.13,0,0,0-1.19-1.49H14.35a1.12,1.12,0,0,0,.16,2.23Zm-2.15,6.71H15.09c-.93,0-1.86,0-2.79,0a1.11,1.11,0,0,0-1.11,1,1.13,1.13,0,0,0,.9,1.16,2.27,2.27,0,0,0,.45,0H26.35a1.12,1.12,0,1,0,0-2.24Zm1.09-4.47h-7a1.1,1.1,0,0,0-1.16,1.25,1.12,1.12,0,0,0,1.23,1H27.46a1.08,1.08,0,0,0,1.07-.66,1.12,1.12,0,0,0-1.11-1.57Z"/><path class="cls-1" d="M4.85,0A9.08,9.08,0,0,1,5.9.31,4.39,4.39,0,0,1,8.74,4.18v.18a.82.82,0,0,1,0,.11H8.32c-2.29,0-4.57,0-6.86,0A1.4,1.4,0,0,1,0,3.65V3.06c.05-.1.11-.19.15-.29a3.91,3.91,0,0,1,1.68-2A15.05,15.05,0,0,1,3.73,0Z"/><path class="cls-1" d="M18.48,38.15a8,8,0,0,0,2.29-4.46H36.82a1.21,1.21,0,0,1,1.2.58,1.18,1.18,0,0,1-.15,1.33,5.38,5.38,0,0,1-4.59,2.55c-4.86,0-9.71,0-14.57,0Z"/></g></g></svg>