<svg xmlns="http://www.w3.org/2000/svg" viewBox="0 0 31.49 38.12" fill="#9d7c40"><g id="Layer_2" data-name="Layer 2"><g id="Layer_1-2" data-name="Layer 1"><path d="M29.66,38.12H10.38C8.91,37.54,8.53,37,8.53,35.37V3.29A5.47,5.47,0,0,0,7.67.22.93.93,0,0,1,7.58,0h.17c6.89,0,13.77,0,20.66,0a3.07,3.07,0,0,1,1.32.33,3.16,3.16,0,0,1,1.76,3.1q0,16.07,0,32.13a4.61,4.61,0,0,1,0,.52A2.16,2.16,0,0,1,30,38C29.91,38,29.79,38.07,29.66,38.12ZM20,9.81H14.74c-.63,0-1.26,0-1.89,0a1.09,1.09,0,0,0-1,.94,1.11,1.11,0,0,0,.7,1.19,2.1,2.1,0,0,0,.66.09H26.86a2.06,2.06,0,0,0,.55-.06,1.1,1.1,0,0,0-.17-2.16,3.27,3.27,0,0,0-.44,0ZM20,20H12.91a1.11,1.11,0,0,0-1.11,1,1.12,1.12,0,0,0,.9,1.2,2.85,2.85,0,0,0,.51,0H24.63c.8,0,1.59,0,2.38,0a1.13,1.13,0,0,0,1.06-.57,1.11,1.11,0,0,0-1-1.66Zm0-2.88h7A1.12,1.12,0,0,0,28.22,16,1.15,1.15,0,0,0,27,14.9H13a1.11,1.11,0,1,0,0,2.22ZM20,6.93h7a1.13,1.13,0,0,0,1.17-.78A1.11,1.11,0,0,0,27,4.7H13a1.12,1.12,0,1,0,0,2.24Zm1.39,22.94c0,.05.08.07.09.1a2.29,2.29,0,0,0,4,.43c.78-1,1.62-1.94,2.43-2.91a1.12,1.12,0,1,0-1.72-1.42c-.67.79-1.33,1.59-2,2.38-.18.23-.38.44-.59.68-.15-.22-.27-.41-.41-.58a2,2,0,0,0-3-.56c-.33.19-.66.39-1,.6a1.12,1.12,0,0,0-.49,1.61,1.14,1.14,0,0,0,1.66.28Z"/><path d="M6.28,20.46c-1.66,0-3.27,0-4.88,0A1.44,1.44,0,0,1,0,19a2.17,2.17,0,0,1,0-.26V3.36A3.18,3.18,0,0,1,2,.22a3.13,3.13,0,0,1,4.29,3q0,8.43,0,16.85C6.3,20.2,6.29,20.31,6.28,20.46Z"/></g></g></svg>