<svg width="31" height="29" viewBox="0 0 31 29" fill="none" xmlns="http://www.w3.org/2000/svg">
<path d="M29.803 12.6495C30.96 12.6495 31.443 11.1809 30.5032 10.5039L16.2038 0.227501C15.9996 0.0796876 15.7531 0 15.4999 0C15.2468 0 15.0002 0.0796876 14.796 0.227501L0.496659 10.5039C-0.443151 11.1772 0.0398589 12.6495 1.20058 12.6495H3.51828V26.4845H0.822409C0.657662 26.4845 0.522868 26.6177 0.522868 26.7805V28.7041C0.522868 28.8668 0.657662 29 0.822409 29H30.1774C30.3422 29 30.4769 28.8668 30.4769 28.7041V26.7805C30.4769 26.6177 30.3422 26.4845 30.1774 26.4845H27.4815V12.6495H29.803ZM15.4999 2.83545L25.6506 10.1303H5.34922L15.4999 2.83545ZM6.21414 12.6495H10.5949V26.4845H6.21414V12.6495ZM13.2908 12.6495H17.6716V26.4845H13.2908V12.6495ZM24.7857 26.4845H20.3674V12.6495H24.7857V26.4845Z" fill="#9D7C40"/>
</svg>
