<svg width="49" height="47" viewBox="0 0 49 47" fill="none" xmlns="http://www.w3.org/2000/svg">
<g clip-path="url(#clip0_34_371)">
<path d="M10.7234 22.5612H5.95744V38.0589H10.7234V22.5612Z" fill="#CCD0DF"/>
<path d="M26.5106 22.5612H22.3404V38.0589H26.5106V22.5612Z" fill="#CCD0DF"/>
<path d="M42.5957 22.5612H38.1277V38.0589H42.5957V22.5612Z" fill="#CCD0DF"/>
<path d="M48.8511 43.4236H0V47H48.8511V43.4236Z" fill="#9D7C40"/>
<path d="M12.8085 41.0393H4.17021V43.4236H12.8085V41.0393Z" fill="#715A29"/>
<path d="M12.8085 19.5808H4.17021V21.9651H12.8085V19.5808Z" fill="#715A29"/>
<path d="M44.6809 15.7064H4.17021V19.5809H44.6809V15.7064Z" fill="#9D7C40"/>
<path d="M11.3191 21.9651H5.36169V25.2435H11.3191V21.9651Z" fill="#BAC1D3"/>
<path d="M11.3191 38.059H5.36169V41.0393H11.3191V38.059Z" fill="#BAC1D3"/>
<path d="M28.5957 41.0393H19.3617V43.4236H28.5957V41.0393Z" fill="#715A29"/>
<path d="M28.5957 19.5808H19.3617V21.9651H28.5957V19.5808Z" fill="#715A29"/>
<path d="M27.1064 21.9651H21.1489V25.2435H27.1064V21.9651Z" fill="#BAC1D3"/>
<path d="M27.1064 38.059H21.1489V41.0393H27.1064V38.059Z" fill="#BAC1D3"/>
<path d="M44.6808 41.0393H35.1489V43.4236H44.6808V41.0393Z" fill="#715A29"/>
<path d="M44.6808 19.5808H35.1489V21.9651H44.6808V19.5808Z" fill="#715A29"/>
<path d="M44.0851 21.9651H36.6383V25.2435H44.0851V21.9651Z" fill="#BAC1D3"/>
<path d="M44.0851 38.059H36.6383V41.0393H44.0851V38.059Z" fill="#BAC1D3"/>
<path d="M0.148941 15.7064H49L24.5149 0L0.148941 15.7064Z" fill="#9D7C40"/>
<path d="M24.5745 4.41089L42.2681 15.7064H6.64255L24.5745 4.41089Z" fill="#715A29"/>
<path d="M24.6638 28.3431H24.7234V28.3133C24.7234 28.2835 24.6638 28.3431 24.6638 28.3431Z" fill="#15FF8A"/>
</g>
<defs>
<clipPath id="clip0_34_371">
<rect width="49" height="47" fill="white"/>
</clipPath>
</defs>
</svg>
