<svg width="137" height="156" viewBox="0 0 137 156" fill="none" xmlns="http://www.w3.org/2000/svg">
<g clip-path="url(#clip0_44_291)">
<path opacity="0.43" d="M120.489 34.933H97.7073V23.3036C97.7015 22.321 97.3086 21.3806 96.6146 20.6879C95.9207 19.9952 94.9819 19.6064 94.0034 19.6064H84.8998C84.4164 19.6064 83.9376 19.702 83.491 19.8878C83.0443 20.0736 82.6384 20.346 82.2966 20.6893C81.9547 21.0326 81.6835 21.4402 81.4985 21.8887C81.3135 22.3373 81.2183 22.8181 81.2183 23.3036V34.933H49.088C48.9544 30.8037 47.7486 26.7811 45.5901 23.2639C43.4315 19.7468 40.3952 16.8572 36.782 14.8816C33.1688 12.906 29.1042 11.9129 24.9911 12.0009C20.8779 12.0888 16.8591 13.2547 13.3329 15.383C9.80672 17.5112 6.89559 20.528 4.88806 24.1342C2.88053 27.7404 1.84632 31.8109 1.88793 35.9422C1.92953 40.0735 3.04552 44.1222 5.12526 47.6869C7.20501 51.2516 10.1763 54.2086 13.7446 56.2648V90.6377C13.7417 91.1251 13.8348 91.6083 14.0185 92.0594C14.2022 92.5106 14.4729 92.9208 14.815 93.2665C15.1572 93.6122 15.564 93.8865 16.0122 94.0737C16.4603 94.2609 16.9409 94.3573 17.4262 94.3573H53.5505V100.833C53.5476 101.32 53.6406 101.804 53.8243 102.255C54.008 102.706 54.2787 103.116 54.6209 103.462C54.9631 103.808 55.3699 104.082 55.818 104.269C56.2662 104.456 56.7467 104.553 57.2321 104.553H67.0497V152.37C67.0497 153.356 67.4399 154.303 68.1345 155C68.8292 155.698 69.7713 156.09 70.7536 156.09H78.0945C78.5828 156.093 79.0668 155.998 79.5188 155.813C79.9707 155.627 80.3817 155.354 80.728 155.008C81.0743 154.662 81.3491 154.251 81.5366 153.799C81.7242 153.346 81.8207 152.86 81.8207 152.37V104.553H91.6383C92.1236 104.553 92.6042 104.456 93.0523 104.269C93.5005 104.082 93.9073 103.808 94.2495 103.462C94.5917 103.116 94.8624 102.706 95.0461 102.255C95.2298 101.804 95.3228 101.32 95.3199 100.833V94.3573H131.466C132.449 94.3573 133.391 93.9654 134.086 93.2679C134.78 92.5703 135.17 91.6242 135.17 90.6377V49.7667C135.165 45.8498 133.619 42.0937 130.869 39.3157C128.12 36.5377 124.389 34.9625 120.489 34.933Z" fill="#9D7D41"/>
<path d="M67.072 95.2761H81.8207V146.813H67.072V95.2761Z" fill="white"/>
<path d="M67.072 124.607H81.8207V135.811H67.072V124.607Z" fill="#9D7D41"/>
<path d="M91.6383 95.276H57.2544C56.7691 95.279 56.288 95.1855 55.8387 95.001C55.3895 94.8166 54.981 94.5447 54.6367 94.2011C54.2925 93.8575 54.0193 93.4489 53.8329 92.9989C53.6465 92.5488 53.5505 92.0662 53.5505 91.5788V82.7279H95.3199V91.5788C95.3199 92.5594 94.932 93.4998 94.2416 94.1931C93.5512 94.8865 92.6147 95.276 91.6383 95.276Z" fill="#9D7D41"/>
<path d="M135.17 40.5125V81.3611C135.179 81.8552 135.09 82.3461 134.908 82.8052C134.726 83.2643 134.454 83.6823 134.109 84.0348C133.765 84.3874 133.353 84.6674 132.899 84.8585C132.446 85.0496 131.958 85.148 131.466 85.1479H17.4262C16.9408 85.148 16.4602 85.0516 16.0121 84.8644C15.564 84.6772 15.1571 84.4028 14.815 84.0571C14.4728 83.7115 14.2021 83.3012 14.0184 82.8501C13.8347 82.3989 13.7416 81.9157 13.7446 81.4283V40.5125C13.7446 36.5784 15.3008 32.8054 18.0709 30.0235C20.841 27.2417 24.5981 25.6788 28.5156 25.6788H120.489C124.391 25.7025 128.125 27.2758 130.876 30.0551C133.626 32.8344 135.17 36.5938 135.17 40.5125Z" fill="white"/>
<path d="M69.6157 86.9405H17.4263C15.9566 86.9346 14.5492 86.3441 13.5121 85.2984C12.475 84.2527 11.8927 82.8369 11.8927 81.3611V40.5124C11.8986 36.0869 13.6518 31.8443 16.768 28.7149C19.8841 25.5856 24.1088 23.8249 28.5157 23.819H58.5486C62.9534 23.8249 67.1758 25.5863 70.2884 28.7163C73.4009 31.8463 75.1492 36.0889 75.1492 40.5124V81.3611C75.1492 82.8369 74.5669 84.2527 73.5298 85.2984C72.4927 86.3441 71.0853 86.9346 69.6157 86.9405ZM28.5157 27.5162C25.0911 27.528 21.8109 28.9025 19.3936 31.3385C16.9762 33.7745 15.6189 37.0734 15.6189 40.5124V81.3611C15.6189 81.8543 15.814 82.3274 16.1613 82.6761C16.5087 83.0249 16.9797 83.2209 17.4709 83.2209H69.6157C70.1068 83.2209 70.5779 83.0249 70.9252 82.6761C71.2725 82.3274 71.4676 81.8543 71.4676 81.3611V40.5124C71.4676 37.0695 70.1072 33.7672 67.6851 31.3306C65.2629 28.894 61.977 27.5221 58.5486 27.5162H28.5157Z" fill="black"/>
<path d="M61.583 43.0669V85.1479H25.4587V43.0669C25.4587 42.5795 25.5547 42.0969 25.7411 41.6469C25.9275 41.1968 26.2007 40.7882 26.5449 40.4446C26.8892 40.101 27.2977 39.8292 27.7469 39.6447C28.1962 39.4602 28.6773 39.3667 29.1626 39.3697H58.013C58.9894 39.3697 59.9258 39.7592 60.6163 40.4526C61.3067 41.1459 61.6946 42.0863 61.6946 43.0669H61.583Z" fill="#9D7D41"/>
<path d="M94.0034 10.3298H84.8998C83.9234 10.3298 82.9869 10.7194 82.2965 11.4127C81.6061 12.1061 81.2182 13.0465 81.2182 14.027V55.3686C81.1768 55.9281 81.2508 56.4901 81.4356 57.0195C81.6203 57.549 81.9119 58.0344 82.292 58.4455C82.6721 58.8566 83.1326 59.1846 83.6446 59.4088C84.1567 59.6331 84.7093 59.7488 85.2679 59.7488C85.8266 59.7488 86.3792 59.6331 86.8913 59.4088C87.4033 59.1846 87.8638 58.8566 88.2439 58.4455C88.624 58.0344 88.9155 57.549 89.1003 57.0195C89.2851 56.4901 89.3591 55.9281 89.3177 55.3686V37.4427L95.5653 34.5298C96.2184 34.2426 96.7758 33.7733 97.1713 33.1776C97.5668 32.5818 97.7838 31.8846 97.7965 31.1687V14.027C97.7906 13.0444 97.3978 12.1041 96.7038 11.4114C96.0098 10.7186 95.0711 10.3298 94.0926 10.3298H94.0034Z" fill="#9D7D41"/>
<path d="M25.4587 45.4645H61.583V50.1252H25.4587V45.4645Z" fill="#7E6532"/>
<path d="M25.4587 54.786H61.583V59.4467H25.4587V54.786Z" fill="#7E6532"/>
<path d="M25.4587 64.1074H61.583V68.7682H25.4587V64.1074Z" fill="#7E6532"/>
<path d="M25.4587 73.429H61.583V78.0897H25.4587V73.429Z" fill="#7E6532"/>
<path d="M25.4588 50.1028C38.4965 50.1028 49.0656 39.4888 49.0656 26.3958C49.0656 13.3028 38.4965 2.68884 25.4588 2.68884C12.4211 2.68884 1.85193 13.3028 1.85193 26.3958C1.85193 39.4888 12.4211 50.1028 25.4588 50.1028Z" fill="white"/>
<path d="M67.072 104.284C66.8317 104.284 66.5938 104.331 66.3718 104.424C66.1498 104.516 65.9481 104.651 65.7782 104.822C65.6084 104.993 65.4736 105.195 65.3816 105.418C65.2897 105.641 65.2424 105.88 65.2424 106.121V146.723C65.2138 146.983 65.2402 147.246 65.3197 147.495C65.3992 147.744 65.53 147.973 65.7037 148.168C65.8774 148.363 66.0901 148.519 66.3277 148.625C66.5654 148.732 66.8228 148.787 67.0832 148.787C67.3435 148.787 67.6009 148.732 67.8386 148.625C68.0763 148.519 68.2889 148.363 68.4626 148.168C68.6363 147.973 68.7671 147.744 68.8466 147.495C68.9261 147.246 68.9525 146.983 68.924 146.723V106.121C68.9181 105.632 68.7204 105.165 68.3737 104.821C68.027 104.477 67.5593 104.284 67.072 104.284Z" fill="black"/>
<path d="M120.489 23.8191H99.5369V14.0271C99.5311 12.5551 98.9462 11.145 97.9097 10.1042C96.8732 9.06329 95.4692 8.47593 94.0034 8.47003H84.8998C83.434 8.47593 82.0299 9.06329 80.9935 10.1042C79.957 11.145 79.3721 12.5551 79.3662 14.0271V55.3686C79.3662 56.9375 79.9869 58.4422 81.0915 59.5515C82.1962 60.6609 83.6945 61.2842 85.2568 61.2842C86.8191 61.2842 88.3174 60.6609 89.4221 59.5515C90.5267 58.4422 91.1473 56.9375 91.1473 55.3686V38.72L96.3239 36.3C97.2657 35.8633 98.0664 35.1696 98.6345 34.298C99.2026 33.4263 99.5153 32.4119 99.5369 31.3703V27.5163H120.489C123.917 27.5222 127.203 28.8941 129.625 31.3307C132.047 33.7673 133.408 37.0696 133.408 40.5125V81.3612C133.408 81.8544 133.212 82.3275 132.865 82.6762C132.518 83.025 132.047 83.221 131.556 83.221H17.4262C16.9428 83.2093 16.4831 83.0082 16.1454 82.6606C15.8077 82.3131 15.6187 81.8467 15.6189 81.3612V49.9909C18.7464 51.3171 22.1084 51.9954 25.5034 51.9851C32.0611 51.9801 38.3644 49.4364 43.1021 44.8832C47.8397 40.3299 50.647 34.1176 50.9399 27.5387H70.4412C70.6999 27.5673 70.9618 27.5409 71.2097 27.461C71.4576 27.3812 71.6859 27.2498 71.8798 27.0754C72.0737 26.9009 72.2288 26.6874 72.335 26.4487C72.4412 26.21 72.4961 25.9515 72.4961 25.6901C72.4961 25.4286 72.4412 25.1702 72.335 24.9315C72.2288 24.6928 72.0737 24.4792 71.8798 24.3048C71.6859 24.1304 71.4576 23.9989 71.2097 23.9191C70.9618 23.8393 70.6999 23.8128 70.4412 23.8415H50.806C50.3747 19.5259 48.8574 15.3915 46.3966 11.8272C43.9358 8.26281 40.6126 5.38573 36.7395 3.46659C32.8664 1.54745 28.5708 0.649347 24.2569 0.856774C19.9429 1.0642 15.7524 2.37034 12.0796 4.65231C8.40683 6.93427 5.3725 10.117 3.26208 13.9012C1.15167 17.6853 0.0345651 21.9464 0.0158637 26.2836C-0.00283766 30.6208 1.07748 34.8914 3.15518 38.6938C5.23288 42.4961 8.23966 45.7052 11.8926 48.019V81.3612C11.8926 82.837 12.4749 84.2528 13.512 85.2985C14.5491 86.3442 15.9565 86.9347 17.4262 86.9406H51.7208V91.5789C51.7208 93.0527 52.3038 94.4662 53.3415 95.5083C54.3793 96.5505 55.7868 97.1359 57.2544 97.1359H79.9687V146.723C79.9687 147.217 80.1638 147.69 80.5111 148.038C80.8584 148.387 81.3295 148.583 81.8206 148.583C82.3118 148.583 82.7829 148.387 83.1302 148.038C83.4775 147.69 83.6726 147.217 83.6726 146.723V97.1359H91.6382C93.1058 97.1359 94.5133 96.5505 95.551 95.5083C96.5888 94.4662 97.1718 93.0527 97.1718 91.5789V86.9406H131.466C132.936 86.9347 134.343 86.3442 135.381 85.2985C136.418 84.2528 137 82.837 137 81.3612V40.5125C137 36.1045 135.264 31.8753 132.171 28.7479C129.077 25.6205 124.878 23.8486 120.489 23.8191ZM95.9446 31.3703C95.9435 31.7237 95.8422 32.0694 95.6525 32.3671C95.4628 32.6647 95.1926 32.9019 94.8736 33.0509L88.5368 35.8518C88.2177 36.0008 87.9475 36.238 87.7578 36.5356C87.5682 36.8333 87.4669 37.179 87.4658 37.5324V55.4582C87.4658 56.0525 87.2307 56.6225 86.8122 57.0427C86.3938 57.4629 85.8263 57.699 85.2345 57.699C84.6427 57.699 84.0752 57.4629 83.6567 57.0427C83.2383 56.6225 83.0032 56.0525 83.0032 55.4582V14.0271C83.0091 13.5377 83.2068 13.0704 83.5535 12.7264C83.9001 12.3825 84.3678 12.1896 84.8552 12.1896H93.9587C94.4461 12.1896 94.9138 12.3825 95.2605 12.7264C95.6071 13.0704 95.8048 13.5377 95.8107 14.0271L95.9446 31.3703ZM3.70387 26.3959C3.70387 22.0696 4.98165 17.8404 7.37554 14.2435C9.76944 10.6466 13.1719 7.84351 17.1525 6.18892C21.133 4.53432 25.5128 4.10254 29.7378 4.9482C33.9628 5.79386 37.8431 7.87896 40.8878 10.9397C43.9325 14.0005 46.0048 17.8994 46.8425 22.1431C47.6803 26.3869 47.2458 30.7848 45.5942 34.7806C43.9425 38.7763 41.1478 42.1903 37.5636 44.5907C33.9794 46.9911 29.7668 48.2699 25.4588 48.2655C19.6869 48.2595 14.1536 45.9528 10.0744 41.8521C5.99518 37.7514 3.70386 32.1922 3.70387 26.3959ZM93.4902 91.5789C93.4843 92.0683 93.2866 92.5356 92.9399 92.8795C92.5933 93.2235 92.1256 93.4163 91.6382 93.4163H57.2544C56.7691 93.4163 56.3037 93.2227 55.9606 92.8782C55.6175 92.5336 55.4247 92.0662 55.4247 91.5789V86.9406H93.4902V91.5789Z" fill="black"/>
<path d="M37.2398 35.1795H13.6776C13.3226 35.1795 12.982 35.0379 12.731 34.7858C12.4799 34.5336 12.3389 34.1917 12.3389 33.8351V18.9566C12.3389 18.6001 12.4799 18.2581 12.731 18.006C12.982 17.7538 13.3226 17.6122 13.6776 17.6122H37.2398C37.5949 17.6122 37.9354 17.7538 38.1865 18.006C38.4376 18.2581 38.5786 18.6001 38.5786 18.9566V33.8351C38.5786 34.1917 38.4376 34.5336 38.1865 34.7858C37.9354 35.0379 37.5949 35.1795 37.2398 35.1795Z" fill="#8FE29D"/>
<path d="M25.8604 24.0207L38.5786 33.8351C38.5786 34.1917 38.4376 34.5336 38.1865 34.7858C37.9354 35.0379 37.5949 35.1795 37.2398 35.1795H13.6776C13.3226 35.1795 12.982 35.0379 12.731 34.7858C12.4799 34.5336 12.3389 34.1917 12.3389 33.8351L25.0571 24.0207C25.173 23.9334 25.3139 23.8862 25.4587 23.8862C25.6036 23.8862 25.7445 23.9334 25.8604 24.0207Z" fill="#97ECA4"/>
<path d="M25.0571 28.771L12.3389 18.9566C12.3389 18.6001 12.4799 18.2581 12.731 18.006C12.982 17.7538 13.3226 17.6122 13.6776 17.6122H37.2398C37.5949 17.6122 37.9354 17.7538 38.1865 18.006C38.4376 18.2581 38.5786 18.6001 38.5786 18.9566L25.8604 28.771C25.7445 28.8583 25.6036 28.9055 25.4587 28.9055C25.3139 28.9055 25.173 28.8583 25.0571 28.771Z" fill="#97ECA4"/>
<path d="M25.4588 30.7653C24.9046 30.759 24.3662 30.5788 23.9192 30.2499L12.9413 20.8836C12.5705 20.5625 12.3395 20.1084 12.2978 19.6184C12.2561 19.1285 12.407 18.6416 12.7182 18.2619C13.0378 17.8877 13.4924 17.6562 13.9819 17.6184C14.4715 17.5806 14.9559 17.7395 15.3288 18.0603L25.4588 26.6871L35.7003 18.0603C35.8711 17.8348 36.091 17.6515 36.3432 17.5244C36.5953 17.3972 36.8731 17.3296 37.1552 17.3268C37.4373 17.3239 37.7164 17.3857 37.9711 17.5077C38.2257 17.6296 38.4493 17.8084 38.6247 18.0303C38.8001 18.2522 38.9227 18.5115 38.9831 18.7883C39.0435 19.065 39.0402 19.352 38.9733 19.6273C38.9064 19.9025 38.7778 20.1588 38.5973 20.3766C38.4167 20.5943 38.189 20.7677 37.9316 20.8836L26.9983 30.1827C26.5527 30.5143 26.0134 30.6949 25.4588 30.698V30.7653Z" fill="#69A573"/>
<path d="M31.4163 108.003C30.3553 108.006 29.3174 107.692 28.4343 107.101C27.5513 106.511 26.8629 105.67 26.4565 104.685C26.0501 103.701 25.944 102.618 26.1517 101.573C26.3594 100.528 26.8716 99.5685 27.6232 98.8164C28.6292 97.8091 29.9924 97.2444 31.413 97.2465C32.8337 97.2486 34.1953 97.8173 35.1983 98.8276C36.2014 99.8379 36.7637 101.207 36.7616 102.634C36.7595 104.06 36.1932 105.428 35.1872 106.435C34.6942 106.935 34.1067 107.332 33.4592 107.601C32.8117 107.87 32.1172 108.007 31.4163 108.003ZM31.4163 100.967C31.0853 100.961 30.7602 101.055 30.483 101.237C30.2058 101.419 29.9895 101.68 29.862 101.987C29.7345 102.294 29.7018 102.632 29.7681 102.957C29.8343 103.283 29.9966 103.581 30.2337 103.813C30.5382 104.094 30.9363 104.249 31.3494 104.249C31.7624 104.249 32.1605 104.094 32.465 103.813C32.7784 103.498 32.9544 103.071 32.9544 102.626C32.9544 102.18 32.7784 101.753 32.465 101.438C32.312 101.287 32.1308 101.167 31.9317 101.086C31.7325 101.006 31.5195 100.965 31.3047 100.967H31.4163Z" fill="#9D7D41"/>
<path d="M49.735 119.857C49.2429 119.858 48.7701 119.665 48.4186 119.319L46.1873 117.078L43.956 119.319C43.7857 119.493 43.5826 119.632 43.3585 119.726C43.1344 119.82 42.8938 119.869 42.6507 119.869C42.4077 119.869 42.1671 119.82 41.943 119.726C41.7189 119.632 41.5158 119.493 41.3455 119.319C41.0007 118.971 40.8073 118.499 40.8073 118.008C40.8073 117.517 41.0007 117.046 41.3455 116.697L44.8485 113.18C45.1955 112.833 45.6647 112.639 46.1538 112.639C46.6429 112.639 47.1122 112.833 47.4591 113.18L50.9622 116.697C51.2152 116.957 51.3867 117.286 51.4557 117.643C51.5247 118 51.4881 118.369 51.3504 118.705C51.2128 119.041 50.9801 119.329 50.6811 119.534C50.3821 119.739 50.0299 119.851 49.6681 119.857H49.735Z" fill="#9D7D41"/>
<path d="M68.6116 7.2376C68.3691 7.24362 68.1278 7.20116 67.9018 7.11268C67.6758 7.0242 67.4696 6.89148 67.2951 6.72223L65.0639 4.48149L62.8326 6.72223C62.4805 7.06691 62.0065 7.25701 61.5148 7.25071C61.0231 7.2444 60.5541 7.04221 60.2108 6.68862C59.8676 6.33502 59.6783 5.85898 59.6846 5.36522C59.6909 4.87147 59.8922 4.40044 60.2443 4.05575L63.792 0.5378C64.139 0.191613 64.6082 -0.00268555 65.0973 -0.00268555C65.5864 -0.00268555 66.0557 0.191613 66.4026 0.5378L69.9057 4.05575C70.0798 4.2287 70.2179 4.43459 70.3122 4.66152C70.4065 4.88844 70.4551 5.1319 70.4551 5.37779C70.4551 5.62368 70.4065 5.86713 70.3122 6.09406C70.2179 6.32098 70.0798 6.52687 69.9057 6.69982C69.7357 6.87042 69.534 7.00571 69.3119 7.09799C69.0899 7.19026 68.8519 7.2377 68.6116 7.2376Z" fill="#9D7D41"/>
<path d="M111.764 109.796C111.52 109.799 111.278 109.753 111.052 109.661C110.826 109.568 110.62 109.432 110.448 109.258L108.217 107.017L105.985 109.258C105.636 109.606 105.164 109.8 104.672 109.798C104.18 109.796 103.71 109.598 103.364 109.247C103.017 108.896 102.824 108.422 102.826 107.928C102.828 107.435 103.026 106.962 103.375 106.614L106.945 103.074C107.292 102.728 107.761 102.533 108.25 102.533C108.739 102.533 109.208 102.728 109.555 103.074L113.058 106.592C113.233 106.765 113.371 106.971 113.465 107.198C113.559 107.424 113.608 107.668 113.608 107.914C113.608 108.16 113.559 108.403 113.465 108.63C113.371 108.857 113.233 109.063 113.058 109.236C112.89 109.41 112.689 109.55 112.467 109.646C112.245 109.742 112.006 109.793 111.764 109.796Z" fill="#9D7D41"/>
<path d="M42.2157 149.009C41.5116 149.012 40.814 148.875 40.1629 148.606C39.5119 148.336 38.9204 147.94 38.4225 147.44C37.9247 146.94 37.5303 146.346 37.2623 145.693C36.9942 145.039 36.8577 144.338 36.8606 143.631C36.8594 142.928 36.9968 142.231 37.2648 141.581C37.5329 140.931 37.9264 140.341 38.4225 139.844C39.0436 139.215 39.8097 138.75 40.6528 138.49C41.4959 138.23 42.3899 138.183 43.2554 138.354C44.1209 138.524 44.931 138.907 45.6139 139.467C46.2968 140.028 46.8312 140.749 47.1697 141.567C47.5082 142.385 47.6403 143.274 47.5543 144.156C47.4683 145.037 47.1668 145.884 46.6766 146.62C46.1865 147.356 45.5228 147.96 44.7446 148.376C43.9663 148.793 43.0977 149.01 42.2157 149.009ZM42.2157 141.973C41.9958 141.972 41.778 142.015 41.5749 142.1C41.3718 142.184 41.1876 142.309 41.0331 142.466C40.7632 142.776 40.6145 143.174 40.6145 143.586C40.6145 143.998 40.7632 144.396 41.0331 144.707C41.3469 145.021 41.7722 145.198 42.2157 145.198C42.6592 145.198 43.0845 145.021 43.3983 144.707C43.6245 144.471 43.7771 144.173 43.8373 143.851C43.8974 143.529 43.8625 143.197 43.7369 142.894C43.6112 142.592 43.4003 142.333 43.13 142.149C42.8597 141.966 42.5419 141.866 42.2157 141.861V141.973Z" fill="#9D7D41"/>
</g>
<defs>
<clipPath id="clip0_44_291">
<rect width="137" height="156" fill="white"/>
</clipPath>
</defs>
</svg>
