<svg width="12" height="16" viewBox="0 0 12 16" fill="none" xmlns="http://www.w3.org/2000/svg">
<g clip-path="url(#clip0_1142_398)">
<path d="M8.09608 0C8.41402 0.121798 8.53111 0.353186 8.51655 0.675999C8.50232 0.97658 8.51364 1.2781 8.51364 1.60185H8.71158C9.58746 1.60185 10.4634 1.60185 11.3395 1.60185C11.7992 1.60185 12 1.79597 12.0003 2.23745C12.0003 2.70085 12.0003 3.16415 12.0003 3.62734C12.0003 4.06067 11.8008 4.25135 11.3486 4.25135C7.79075 4.25135 4.23289 4.25271 0.675027 4.25542C0.343823 4.25542 0.116439 4.14834 0 3.84369V1.99981C0.129377 1.69547 0.37067 1.59277 0.701228 1.59809C1.56482 1.60905 2.4284 1.60185 3.29232 1.60185H3.48638C3.48638 1.2759 3.49738 0.975639 3.48314 0.674431C3.46794 0.351932 3.586 0.121485 3.90362 0H8.09608ZM4.5767 1.59246H7.42299V1.05173H4.5767V1.59246Z" fill="#A8B5BB"/>
<path d="M0.75354 5.30368H11.214C11.214 5.6052 11.2243 5.89859 11.2123 6.19291C11.1551 7.58717 11.0914 8.97955 11.0302 10.3751C10.9552 12.0763 10.8797 13.7775 10.8038 15.4787C10.7896 15.7965 10.5632 15.9991 10.2216 15.9997C9.00118 16.0014 7.78105 16.0014 6.56125 15.9997H1.83869C1.39784 15.9997 1.20863 15.8143 1.18987 15.3838C1.10987 13.5425 1.02826 11.7012 0.94503 9.85968C0.879048 8.37222 0.81436 6.88456 0.750965 5.39668C0.748378 5.371 0.751599 5.34658 0.75354 5.30368ZM7.62635 10.655C7.62635 11.6809 7.62635 12.707 7.62635 13.7331C7.62481 13.8112 7.62947 13.8893 7.64026 13.9667C7.65161 14.0362 7.67767 14.1027 7.71682 14.162C7.75598 14.2213 7.80737 14.2721 7.86777 14.3113C7.92818 14.3505 7.9963 14.3771 8.06786 14.3896C8.13941 14.402 8.21285 14.4001 8.28357 14.3838C8.55753 14.3211 8.70405 14.1179 8.70405 13.7976C8.70405 11.699 8.70405 9.60012 8.70405 7.50106C8.70554 7.41795 8.69465 7.33506 8.6717 7.25496C8.63829 7.14946 8.56985 7.05759 8.47697 6.99361C8.3841 6.92963 8.27199 6.89713 8.15808 6.90115C8.04707 6.9002 7.93868 6.93385 7.84893 6.9971C7.75918 7.06036 7.69282 7.14989 7.65965 7.25246C7.63492 7.34834 7.62403 7.44706 7.62731 7.54584C7.62558 8.58222 7.62527 9.6186 7.62635 10.655ZM3.29224 10.6406V12.9998C3.29224 13.2916 3.28545 13.5835 3.29483 13.8765C3.30679 14.2382 3.63767 14.4739 3.98343 14.3775C4.24445 14.3049 4.37156 14.1063 4.37156 13.7669C4.37156 11.6887 4.37156 9.61067 4.37156 7.53269C4.37267 7.45983 4.36726 7.38703 4.35539 7.31508C4.33347 7.20441 4.2741 7.10395 4.18666 7.02956C4.09922 6.95518 3.98868 6.9111 3.87249 6.90428C3.53449 6.88549 3.29353 7.11626 3.29288 7.47038C3.29062 8.52586 3.29223 9.58321 3.2919 10.6406H3.29224ZM5.45929 10.6406C5.45929 11.6774 5.45929 12.7139 5.45929 13.75C5.45712 13.8332 5.46429 13.9163 5.48064 13.998C5.49624 14.0654 5.52577 14.129 5.56747 14.185C5.60917 14.2411 5.66216 14.2883 5.72326 14.324C5.78435 14.3596 5.85228 14.3829 5.92293 14.3924C5.99358 14.4019 6.06549 14.3975 6.13432 14.3794C6.40148 14.3117 6.5399 14.1095 6.54023 13.781C6.54023 11.6922 6.54023 9.60367 6.54023 7.51546C6.54092 7.44783 6.53475 7.38029 6.5218 7.31383C6.49972 7.19761 6.43615 7.09261 6.3422 7.01717C6.24825 6.94174 6.1299 6.90067 6.00785 6.90115C5.88302 6.89717 5.76085 6.93666 5.66353 7.01244C5.5662 7.08821 5.50017 7.19526 5.47741 7.31414C5.46401 7.39109 5.45804 7.46907 5.45961 7.54709C5.45831 8.57825 5.45788 9.60941 5.45831 10.6406H5.45929Z" fill="#A8B5BB"/>
</g>
<defs>
<clipPath id="clip0_1142_398">
<rect width="12" height="16" fill="white"/>
</clipPath>
</defs>
</svg>
