<svg width="133" height="133" viewBox="0 0 133 133" fill="none" xmlns="http://www.w3.org/2000/svg">
<g clip-path="url(#clip0_67_431)">
<path d="M0 92.9698C0.834183 92.6054 1.66837 92.0328 2.50255 91.9808C5.42219 91.8766 8.28969 91.9287 11.4179 91.9287C11.4179 91.3561 11.4179 90.8355 11.4179 90.3671C11.4179 73.5534 11.4179 56.6876 11.4179 39.8739C11.4179 37.6876 12.0435 36.7506 13.3991 36.6986C14.8067 36.6465 15.5888 37.7396 15.5888 39.8739C15.5888 56.6355 15.5888 73.3451 15.5888 90.1068C15.5888 90.6794 15.5888 91.1999 15.5888 91.9287C16.8922 91.9287 18.0913 91.9287 19.2905 91.9287C21.1674 91.9287 22.9922 91.9287 24.8691 91.9287C26.2768 91.9287 27.1109 92.6575 27.1109 93.9068C27.1631 99.6849 27.1631 105.411 27.1109 111.189C27.1109 112.542 26.2246 113.219 24.7648 113.219C21.793 113.219 18.7691 113.219 15.5888 113.219C15.5888 113.792 15.5888 114.26 15.5888 114.781C15.5888 119.882 15.5888 124.983 15.5888 130.085C15.5888 131.386 15.2238 132.375 14.0768 132.948C13.6597 132.948 13.1905 132.948 12.7734 132.948C11.7307 132.271 11.4179 131.334 11.4179 130.085C11.47 124.931 11.4179 119.778 11.4179 114.625C11.4179 114.156 11.4179 113.688 11.4179 113.167C8.34183 113.167 5.42219 113.219 2.55468 113.115C1.7205 113.063 0.886319 112.49 0.0521364 112.126C0 105.827 0 99.3725 0 92.9698Z" fill="#1E1D1D"/>
<path d="M50.8332 28.1096C53.805 28.1096 56.6204 28.1096 59.4357 28.1096C61.834 28.1096 62.4596 28.7342 62.4596 31.1288C62.4596 50.2849 62.4596 69.389 62.4596 88.5452C62.4596 90.9397 61.8861 91.5123 59.4879 91.5123C56.6725 91.5123 53.8571 91.5123 50.8332 91.5123C50.8332 92.137 50.8332 92.6055 50.8332 93.126C50.8332 98.2274 50.8332 103.329 50.8332 108.43C50.8332 108.795 50.8332 109.107 50.8332 109.471C50.7289 110.668 49.999 111.449 48.852 111.501C47.6529 111.553 46.8187 110.825 46.7144 109.575C46.6102 108.482 46.6623 107.389 46.6623 106.348C46.6623 101.923 46.6623 97.4986 46.6623 93.126C46.6623 92.6575 46.6623 92.189 46.6623 91.5644C44.1076 91.5644 41.6572 91.5644 39.2589 91.5644C38.7376 91.5644 38.2162 91.5644 37.6948 91.5644C35.7658 91.5123 35.088 90.8877 35.088 88.9616C35.088 83.8082 35.088 78.6548 35.088 73.5014C35.088 59.3425 35.088 45.1836 35.088 31.0247C35.088 28.7342 35.7136 28.1096 38.0598 28.1096C40.8752 28.1096 43.6905 28.1096 46.6623 28.1096C46.6623 27.4849 46.6623 26.9644 46.6623 26.4959C46.6623 18.6877 46.6623 10.9315 46.6623 3.12328C46.6623 2.55068 46.6623 1.97807 46.8187 1.45753C47.1315 0.468484 47.8614 -0.0520637 48.9042 0.0520459C49.8948 0.104101 50.5725 0.676704 50.7811 1.7178C50.8853 2.18629 50.8332 2.65479 50.8332 3.12328C50.8332 10.8794 50.8332 18.6356 50.8332 26.3918C50.8332 26.8603 50.8332 27.3808 50.8332 28.1096Z" fill="#1E1D1D"/>
<path d="M117.256 79.1754C114.18 79.1754 111.26 79.1754 108.34 79.1754C106.359 79.1754 105.629 78.4466 105.629 76.4165C105.629 66.5781 105.629 56.7918 105.629 46.9534C105.629 45.0795 106.307 44.3507 108.184 44.3507C111.103 44.3507 114.075 44.3507 117.256 44.3507C117.256 43.726 117.256 43.2055 117.256 42.6329C117.256 36.8548 117.256 31.1288 117.256 25.3507C117.256 24.9863 117.256 24.5699 117.308 24.2055C117.464 23.1644 118.09 22.5918 119.132 22.4877C120.227 22.3836 121.009 22.8521 121.27 23.9452C121.426 24.4137 121.426 24.9863 121.426 25.5068C121.426 31.2849 121.426 37.011 121.426 42.789C121.426 43.2575 121.426 43.726 121.426 44.4027C121.948 44.4027 122.365 44.4027 122.782 44.4027C125.232 44.4027 127.735 44.4027 130.185 44.4027C132.375 44.4027 133.001 45.0274 133.001 47.1616C133.001 53.7206 133.001 60.2274 133.001 66.7863C133.001 70.0658 133.001 73.3452 133.001 76.6767C133.001 78.5507 132.271 79.2795 130.446 79.2795C127.526 79.2795 124.555 79.2795 121.531 79.2795C121.479 79.8 121.479 80.2685 121.479 80.6849C121.479 88.0767 121.479 95.4685 121.479 102.86C121.479 103.381 121.479 103.901 121.322 104.37C121.009 105.359 120.279 105.827 119.237 105.775C118.246 105.671 117.568 105.099 117.412 104.058C117.36 103.589 117.36 103.121 117.36 102.652C117.36 95.4165 117.36 88.1808 117.36 80.9973C117.256 80.3726 117.256 79.9041 117.256 79.1754Z" fill="#1E1D1D"/>
<path d="M81.9581 45.1316C78.9342 45.1316 76.0667 45.1316 73.2513 45.1316C71.0616 45.1316 70.3838 44.4549 70.3838 42.2686C70.3838 34.4083 70.3838 26.496 70.3838 18.6357C70.3838 16.7617 71.1137 16.085 72.9906 16.085C75.9102 16.085 78.882 16.085 82.0102 16.085C82.0102 15.5124 82.0102 15.0439 82.0102 14.6275C82.0102 10.6192 82.0102 6.66308 82.0102 2.65486C82.0102 0.98911 82.7923 0.052124 84.0435 0.052124C85.3991 0.052124 86.1811 0.98911 86.1811 2.75897C86.1811 6.71514 86.1811 10.6192 86.1811 14.5754C86.1811 15.0439 86.1811 15.5124 86.1811 16.1371C89.0486 16.1371 91.8119 16.1371 94.5751 16.1371C97.2862 16.1371 97.7554 16.6576 97.7554 19.3124C97.7554 26.9124 97.7554 34.5645 97.7554 42.1645C97.7554 44.611 97.1298 45.2357 94.6794 45.2357C91.9161 45.2357 89.1529 45.2357 86.1811 45.2357C86.1811 45.8083 86.1811 46.3288 86.1811 46.7973C86.1811 57.937 86.1811 69.0247 86.1811 80.1644C86.1811 80.5809 86.2333 81.0494 86.129 81.4658C85.9204 82.559 85.2427 83.2357 84.0957 83.2877C82.9487 83.2877 82.2709 82.611 82.0102 81.5179C81.9059 81.1014 81.9581 80.6329 81.9581 80.2165C81.9581 69.0768 81.9581 57.9891 81.9581 46.8494C81.9581 46.2768 81.9581 45.8083 81.9581 45.1316Z" fill="#1E1D1D"/>
</g>
<defs>
<clipPath id="clip0_67_431">
<rect width="133" height="133" rx="10" fill="white"/>
</clipPath>
</defs>
</svg>
