<svg width="129" height="124" viewBox="0 0 129 124" fill="none" xmlns="http://www.w3.org/2000/svg">
<g clip-path="url(#clip0_67_412)">
<path d="M95.5346 94.3062C98.1628 88.6198 100.747 83.1084 103.332 77.5533C104.514 74.9726 106.398 73.7915 108.895 73.9665C113.143 74.229 115.728 78.2969 113.932 82.1461C109.771 91.2006 105.566 100.255 101.317 109.266C100.353 111.322 98.7323 112.59 96.4545 112.634C94.0453 112.678 92.0304 111.759 90.8039 109.572C88.4385 105.373 86.0294 101.13 83.6202 96.9307C83.445 96.5807 83.226 96.2746 82.7879 96.0121C82.7879 96.4058 82.7879 96.8432 82.7879 97.2369C82.7879 103.973 82.8317 110.709 82.7441 117.445C82.7441 118.67 82.4375 119.982 81.9119 121.076C81.0358 122.869 79.3713 123.788 77.3564 123.788C68.6834 123.832 60.0104 123.832 51.3373 123.788C48.1397 123.744 45.9496 121.251 45.9496 117.839C45.9496 112.459 45.9496 107.079 45.9496 101.698C45.9496 101.305 45.9496 100.911 45.9496 100.517C45.9058 100.474 45.8182 100.474 45.7744 100.43C45.5991 100.736 45.3801 101.042 45.2049 101.349C42.8396 105.504 40.4742 109.659 38.1526 113.771C37.2766 115.302 36.1815 116.439 34.4294 116.92C31.3632 117.752 28.8226 116.658 27.4647 113.815C25.844 110.403 24.2671 106.947 22.6463 103.536C20.1496 97.9805 17.5652 92.4691 15.0246 86.9577C13.7981 84.2894 14.2362 81.8399 16.2511 80.0903C19.3611 77.3783 23.6976 78.2094 25.4497 81.9274C27.9465 87.1764 30.3995 92.4691 32.8525 97.718C32.9839 98.0242 33.1591 98.3741 33.3781 98.8116C35.393 95.2248 37.3642 91.8129 39.3353 88.3574C40.4304 86.389 41.3503 84.2894 42.6643 82.4523C48.4025 74.7101 54.535 76.0661 56.0681 76.0661C63.0328 76.0661 69.9975 76.0661 76.9621 76.0661C77.3564 76.0661 77.8382 75.9786 78.1886 75.7599C81.6491 73.9665 84.5401 74.7976 86.4674 78.2531C89.446 83.5896 92.4684 88.8823 95.5346 94.3062Z" fill="#1E1D1D"/>
<path d="M50.1107 58.7008C50.1545 50.7398 56.5936 44.4411 64.6533 44.4848C72.4941 44.5286 78.8893 51.046 78.8017 58.9632C78.7579 66.8366 72.2751 73.1354 64.3029 73.0917C56.4183 73.0917 50.0669 66.6617 50.1107 58.7008Z" fill="#1E1D1D"/>
<path d="M90.5406 14.4347C89.0513 15.222 87.6935 15.9219 86.2041 16.7092C85.3719 14.8283 84.5834 13.0349 83.7512 11.1103C84.0578 10.9354 84.3206 10.7604 84.5834 10.6292C87.2116 9.36067 89.8398 8.09217 92.4242 6.77993C93.0812 6.47375 93.5193 6.43 94.0887 6.9549C96.016 8.79203 98.2062 8.26714 99.4327 5.90511C99.6079 5.55518 100.134 5.16151 100.44 5.20525C103.769 5.42395 107.098 5.73014 110.427 6.03633C110.427 8.04843 110.427 10.0168 110.427 12.1164C108.763 11.9414 107.186 11.8102 105.434 11.679C106.485 17.1029 107.536 22.3956 108.587 27.7758C103.638 28.7381 98.7318 29.6566 93.6507 30.6189C92.5994 25.2388 91.5919 19.9023 90.5406 14.4347Z" fill="#1E1D1D"/>
<path d="M4.16142 74.7976C2.80353 69.9423 1.40183 65.262 0.175343 60.5816C-0.4379 58.2196 0.613374 56.12 2.80353 54.8515C5.56312 53.2331 8.58553 53.0144 11.6955 53.2768C16.2511 53.6705 20.8504 53.9767 25.4059 54.3704C25.7563 54.4141 26.2382 54.7203 26.3258 54.9827C27.4208 58.5695 28.4721 62.1563 29.5234 65.8743C21.1132 68.805 12.703 71.7794 4.16142 74.7976ZM1.31422 58.4383C1.44563 59.1382 1.57704 59.6631 1.70845 60.3629C7.14003 58.7008 12.4402 57.0823 17.7404 55.4639C17.7404 55.3764 17.6966 55.2889 17.6966 55.2015C16.5577 55.0702 15.4626 54.8515 14.3237 54.8078C13.6667 54.764 12.922 54.9827 12.3088 55.2015C11.2137 55.5514 10.1624 56.0325 8.76074 55.5076C9.15497 55.0265 9.41779 54.7203 9.76821 54.3266C7.53426 53.758 5.60692 54.5453 3.67959 55.5076C4.77466 56.47 4.94988 57.1261 4.51185 57.8697C3.94241 58.7445 2.97874 58.9632 1.31422 58.4383ZM18.266 63.731C16.7329 63.731 15.5064 64.8683 15.5064 66.268C15.5064 67.4928 16.5577 68.4113 17.9156 68.4113C19.4049 68.4113 20.719 67.2303 20.6752 65.8743C20.6752 64.6496 19.6239 63.731 18.266 63.731ZM10.7757 62.1126C10.7757 60.9316 9.76821 60.013 8.45412 60.013C6.96482 60.013 5.65073 61.194 5.69453 62.5062C5.73833 63.731 6.7458 64.6058 8.1475 64.5621C9.6368 64.5621 10.8195 63.4686 10.7757 62.1126ZM13.4477 64.0809C14.3675 64.0809 15.2874 63.2499 15.2874 62.4188C15.2874 61.6752 14.5866 61.0628 13.7105 61.0628C12.703 61.0191 11.8708 61.7626 11.827 62.6375C11.827 63.4686 12.5278 64.0809 13.4477 64.0809ZM23.172 60.7129C22.2521 60.7129 21.4198 61.4565 21.4198 62.2875C21.4198 63.1186 22.1207 63.731 22.9967 63.731C23.9166 63.731 24.7489 62.9874 24.7927 62.1563C24.7489 61.4127 24.0042 60.7129 23.172 60.7129ZM9.33018 68.63C9.33018 67.8427 8.62933 67.2303 7.84088 67.2303C7.05242 67.2741 6.39538 67.9302 6.39538 68.6738C6.39538 69.4611 7.05242 70.0735 7.88468 70.0298C8.67314 70.0735 9.33018 69.4174 9.33018 68.63ZM14.4989 58.3946C16.3825 59.0507 18.1346 58.5695 18.9669 57.2573C17.5214 57.651 16.1635 58.0009 14.4989 58.3946Z" fill="#1E1D1D"/>
<path d="M46.6501 11.329C47.0881 7.69844 46.1245 5.68634 43.7591 4.98648C41.5251 4.3741 40.2111 5.29267 38.5903 8.61701C37.5391 8.26708 36.5316 7.78592 36.3126 6.56117C36.0936 5.29267 36.6192 4.3741 37.6705 3.58676C39.9044 1.92459 42.2698 1.18099 45.0732 1.92459C45.774 2.09956 46.7377 2.01207 47.3948 1.66214C52.5635 -0.874852 57.6009 -0.48118 62.5944 2.09956C65.6168 3.67424 67.9384 6.03627 69.8219 8.79197C71.2236 10.8041 72.4501 12.9037 73.7204 14.9595C74.3336 15.9655 73.5014 18.2838 72.4501 18.765C71.5302 19.1587 70.9608 18.8087 70.917 17.8464C70.917 17.4527 70.9608 17.0591 70.9608 16.6654C71.0046 14.5658 69.6467 12.9474 67.5442 12.6412C65.7044 12.335 63.9085 13.5598 63.2953 15.4844C63.1639 15.8781 63.0763 16.228 62.9887 16.6654C57.5133 14.9158 52.1255 13.1224 46.6501 11.329ZM60.6233 2.58071C57.8199 1.22473 55.0165 0.699834 51.9941 1.44344C50.7238 1.74963 50.1544 2.44949 50.1982 3.84921C53.2644 4.76777 56.3306 5.73008 59.5282 6.69239C59.8786 5.29267 60.2291 4.02417 60.6233 2.58071ZM66.9309 9.18565C66.2739 6.25498 64.2151 4.81152 61.9374 3.23683C61.6308 4.63655 61.3679 5.90505 61.0613 7.21729C62.9886 7.87341 64.8284 8.48578 66.9309 9.18565Z" fill="#1E1D1D"/>
<path d="M110.471 65.0433C108.544 63.7311 108.281 61.8939 108.675 59.9693C109.727 54.8516 112.662 51.0898 117.48 49.034C121.159 47.4156 125.014 46.1908 129.044 44.7036C128.562 45.6659 128.168 46.4533 127.774 47.2406C126.241 50.5649 124.839 53.8893 123.218 57.1699C121.948 59.7944 120.415 62.3314 117.962 64.0373C116.867 64.8246 115.596 65.3058 114.282 65.8307C114.326 61.3253 116.21 57.6073 118.268 53.933C114.896 57.0387 112.311 60.7567 110.471 65.0433Z" fill="#1E1D1D"/>
<path d="M112.924 50.6962C112.749 50.2151 112.574 49.7339 112.399 49.2965C112.311 49.2527 112.18 49.209 112.092 49.1653C112.618 51.6585 110.909 53.102 109.683 54.8954C108.763 53.7144 108.5 52.3146 108.369 50.9149C108.106 47.9405 108.719 45.1411 110.559 42.6916C112.355 40.242 114.238 37.8363 116.253 35.2118C116.779 39.411 117.261 43.2602 117.743 47.1532C117.83 47.7655 117.611 48.0717 116.998 48.3779C115.596 49.034 114.282 49.8651 112.924 50.6962Z" fill="#1E1D1D"/>
<path d="M24.8801 18.5464C27.6835 19.5962 29.7423 21.3021 31.1878 23.8391C28.253 25.37 26.1942 27.6008 25.0116 30.7065C23.8289 30.3128 22.6462 29.9629 21.3321 29.5255C22.5148 25.8949 23.6975 22.2644 24.8801 18.5464Z" fill="#1E1D1D"/>
<path d="M24.223 18.5026C23.0841 22.0456 21.9014 25.6324 20.7187 29.3504C19.5798 29.0005 18.5286 28.6943 17.4773 28.3006C17.3021 28.2569 17.1269 27.8632 17.1707 27.6445C17.6525 22.9204 17.6525 22.7892 16.207 19.0712C17.5649 17.8902 22.208 17.4528 24.223 18.5026Z" fill="#1E1D1D"/>
<path d="M16.9953 40.9418C14.1919 39.9358 12.1769 38.2299 10.6876 35.6929C13.5786 34.1182 15.6812 31.8874 16.8201 28.7817C18.0903 29.1754 19.2292 29.5691 20.4995 30.0065C19.3168 33.637 18.1779 37.2238 16.9953 40.9418Z" fill="#1E1D1D"/>
<path d="M25.7999 40.5482C23.0842 41.6417 20.456 41.9917 17.6088 41.1168C18.7915 37.4863 19.9303 33.8995 21.1568 30.1815C22.3833 30.5752 23.5222 30.9251 24.8363 31.3188C23.9602 34.4682 24.223 37.5301 25.7999 40.5482Z" fill="#1E1D1D"/>
<path d="M32.3266 33.1122C30.0926 32.4124 27.9463 31.7125 25.6247 30.9689C26.7198 27.9945 28.6471 25.8949 31.4943 24.4077C32.9398 27.2072 33.2027 30.0503 32.3266 33.1122Z" fill="#1E1D1D"/>
<path d="M10.3376 35.1242C8.97967 32.2373 8.62924 29.3941 9.54911 26.4197C11.7831 27.1633 13.9732 27.8631 16.2072 28.563C15.1121 31.5812 13.1848 33.637 10.3376 35.1242Z" fill="#1E1D1D"/>
<path d="M16.3824 27.9507C14.1485 27.2508 12.0021 26.5509 9.72435 25.8073C10.7756 22.8329 12.703 20.6896 15.4626 19.2024C16.9081 22.0456 17.3461 24.8888 16.3824 27.9507Z" fill="#1E1D1D"/>
<path d="M25.4494 31.5375C27.7272 32.2811 29.8735 32.9809 32.1075 33.6808C31.0124 36.6552 29.1289 38.7985 26.3693 40.2857C24.9238 37.4863 24.5734 34.6431 25.4494 31.5375Z" fill="#1E1D1D"/>
<path d="M46.256 8.87951C46.256 10.8041 45.0733 12.2039 43.4088 12.2039C41.3501 12.2039 39.7293 10.7604 39.6855 8.83577C39.6417 6.9549 40.9558 5.42395 42.6203 5.42395C44.7667 5.42395 46.256 6.86741 46.256 8.87951Z" fill="#1E1D1D"/>
<path d="M67.4131 20.121C65.4858 20.121 63.8651 18.5901 63.8651 16.7529C63.8651 14.8283 65.0916 13.4286 66.8437 13.3849C68.8586 13.3411 70.4355 14.8283 70.4355 16.7092C70.4355 18.6776 69.1652 20.1648 67.4131 20.121Z" fill="#1E1D1D"/>
</g>
<defs>
<clipPath id="clip0_67_412">
<rect width="129" height="123.788" fill="white"/>
</clipPath>
</defs>
</svg>
