<svg width="55" height="48" viewBox="0 0 55 48" fill="none" xmlns="http://www.w3.org/2000/svg">
<g clip-path="url(#clip0_34_415)">
<path d="M40.604 5.63692C40.604 6.20308 40.1611 6.64615 39.5951 6.64615H33C32.434 6.64615 31.9911 6.20308 31.9911 5.63692V1.00923C31.9911 0.443077 32.434 0 33 0H39.5951C40.1611 0 40.604 0.443077 40.604 1.00923V5.63692Z" fill="#15FF8A"/>
<path d="M34.2304 48C34.7964 48 35.0179 47.6308 34.7226 47.1631L21.4832 24.5415C21.2125 24.0492 20.7942 24.0985 20.5973 24.6154L19.2438 28.0123C19.047 28.5292 18.6779 28.5292 18.4564 28.0369L14.6421 19.4954C14.4206 18.9785 14.0268 18.9785 13.7808 19.4708L0.0984327 47.1138C-0.147652 47.6062 0.0984327 48 0.664428 48H34.2304Z" fill="#715A29"/>
<path d="M32.9754 14.2031C32.9754 14.7693 32.8031 15.2123 32.4832 15.2123C32.1633 15.2123 31.9911 14.7446 31.9911 14.2031V1.23079C31.9911 0.664635 32.1633 0.221558 32.4832 0.221558C32.8031 0.221558 32.9754 0.68925 32.9754 1.23079V14.2031Z" fill="white"/>
<path d="M9.67116 47.1139C9.44968 47.6308 9.69577 48 10.2618 48H54.3356C54.9016 48 55.1477 47.6308 54.9016 47.1139L41.3669 19.1754C41.1208 18.6831 40.6779 18.6585 40.3826 19.1262L38.0201 22.8185C37.7248 23.2862 37.2573 23.2615 37.0112 22.7692L32.7539 14.3754C32.5078 13.8831 32.0895 13.8831 31.8188 14.3754L18.3826 39.3354C18.1119 39.8277 17.7427 39.8031 17.5459 39.2862L15.9709 35.1754C15.7741 34.6585 15.4295 34.6339 15.1835 35.1262L9.67116 47.1139Z" fill="#9D7C40"/>
<path d="M26.7248 48C26.651 48 26.5772 47.9754 26.5034 47.9508C26.2573 47.8277 26.1588 47.5323 26.2819 47.2615L36.8389 26.2154C36.9374 26.0431 37.1096 25.9446 37.3065 25.9446C37.5034 25.9446 37.6756 26.0677 37.7494 26.24L41.7114 34.9538L50.1767 17.6C50.2998 17.3538 50.5951 17.2554 50.8412 17.3785C51.0873 17.5015 51.1857 17.7969 51.0626 18.0677L42.1298 36.2585C42.0559 36.4308 41.8591 36.4308 41.6868 36.4308C41.4899 36.4308 41.3177 36.4308 41.2439 36.2338L37.2819 27.5692L27.1924 47.68C27.094 47.8769 26.9217 48 26.7248 48Z" fill="white"/>
<path d="M52.8837 22.6708L51.9239 22.9661L50.472 18.1908L45.821 19.9877L45.4519 19.0277L51.1119 16.8369L52.8837 22.6708Z" fill="white"/>
</g>
<defs>
<clipPath id="clip0_34_415">
<rect width="55" height="48" fill="white"/>
</clipPath>
</defs>
</svg>
