<svg width="54" height="44" viewBox="0 0 54 44" fill="none" xmlns="http://www.w3.org/2000/svg">
<g clip-path="url(#clip0_34_469)">
<path d="M18.1003 7.73601H15.2533V3.55438C15.2765 1.60296 16.8504 0 18.8178 0H35.1822C37.1496 0 38.7235 1.60296 38.7235 3.55438V7.38754H35.8766V3.55438C35.8766 3.15945 35.5525 2.83421 35.159 2.83421H18.8178C18.4244 2.83421 18.1003 3.15945 18.1003 3.55438V7.73601Z" fill="#575B6D"/>
<path d="M13.7488 6.22598H19.6048C19.9751 6.22598 20.2529 6.52799 20.2529 6.87646V8.52588H13.0776V6.87646C13.1007 6.52799 13.3785 6.22598 13.7488 6.22598Z" fill="#EAB54E"/>
<path d="M34.372 6.22598H40.228C40.5984 6.22598 40.8761 6.52799 40.8761 6.87646V8.52588H33.7008V6.87646C33.724 6.52799 34.0249 6.22598 34.372 6.22598Z" fill="#EAB54E"/>
<path d="M52.6112 10.2682V42.5829C52.6112 43.3728 51.9863 44 51.1993 44H2.80068C2.01371 44 1.38876 43.3728 1.38876 42.5829V10.2682C1.38876 9.08343 2.33776 8.13095 3.51821 8.13095H50.5049C51.6622 8.13095 52.6112 9.08343 52.6112 10.2682Z" fill="#9D7C40"/>
<path d="M52.9353 20.6294L26.9884 27.4594L1.06472 20.6294C0.439777 20.4668 0 19.886 0 19.2587V9.54806C0 8.75819 0.624946 8.13095 1.41192 8.13095H52.5649C53.3519 8.13095 53.9769 8.75819 53.9769 9.54806V19.2587C54 19.886 53.5602 20.4668 52.9353 20.6294Z" fill="#9D7C40"/>
<path d="M52.6112 20.7223V22.3717L26.9884 29.132L1.36563 22.3717V20.7223L26.9884 27.4593L52.6112 20.7223Z" fill="#715A29"/>
<path d="M24.1646 23.1848H29.8123C30.1826 23.1848 30.4604 23.4868 30.4604 23.8353V31.8733C30.4604 32.245 30.1595 32.5238 29.8123 32.5238H24.1646C23.7943 32.5238 23.5165 32.2218 23.5165 31.8733V23.8353C23.5165 23.4868 23.8174 23.1848 24.1646 23.1848Z" fill="#F6C863"/>
<path d="M24.9284 24.6251H29.0484V31.1299H24.9284V24.6251Z" fill="#EAB54E"/>
</g>
<defs>
<clipPath id="clip0_34_469">
<rect width="54" height="44" fill="white"/>
</clipPath>
</defs>
</svg>
