<svg width="49" height="47" viewBox="0 0 49 47" fill="none" xmlns="http://www.w3.org/2000/svg">
<g clip-path="url(#clip0_34_320)">
<path d="M42.7629 45.9281C42.7629 46.0724 42.6586 46.1754 42.5126 46.1754H42.1788C42.0328 46.1754 41.9285 46.0724 41.9285 45.9281V44.1553C41.9285 44.011 42.0328 43.9079 42.1788 43.9079H42.5126C42.6586 43.9079 42.7629 44.011 42.7629 44.1553V45.9281Z" fill="#1F4844"/>
<path d="M40.8855 24.1184V34.6316V40.0943C40.8855 41.2693 40.5726 44.3202 42.8046 44.3202H42.9923C44.9532 44.3202 45.0575 41.2693 45.0575 40.0943V34.6316V24.1184H40.8855Z" fill="#715A29"/>
<path d="M43.5973 11.9561C43.5973 12.6364 43.0341 13.193 42.3457 13.193C41.6573 13.193 41.0941 12.6364 41.0941 11.9561V8.45175C41.0941 7.77148 41.6573 7.2149 42.3457 7.2149C43.0341 7.2149 43.5973 7.77148 43.5973 8.45175V11.9561Z" fill="#715A29"/>
<path d="M1.71052 0C0.771818 0 0 0.474123 0 1.42237V45.289C0 46.2167 0.771818 47.0206 1.71052 47.0206H34.5649C35.5036 47.0206 36.5049 46.2167 36.5049 45.289V11.1316C36.5049 10.2039 35.8582 8.90526 35.1907 8.24562L27.7437 1.05132C27.0762 0.391667 25.6994 0 24.7607 0H1.71052Z" fill="#EBEAEF"/>
<path d="M34.5649 9.07014C35.5036 9.07014 35.7331 8.7197 35.0656 8.06005L27.7854 0.824526C27.1179 0.164877 26.7007 0.474087 26.7007 1.42233V7.75084C26.7007 8.67847 27.2222 9.09075 28.1609 9.09075H34.5649V9.07014Z" fill="#CCD0DF"/>
<path d="M13.0583 8.01883C13.0583 10.0596 11.3895 11.7087 9.3244 11.7087C7.25926 11.7087 5.59047 10.0596 5.59047 8.01883C5.59047 5.97804 7.25926 4.32892 9.3244 4.32892C11.3895 4.32892 13.0583 5.97804 13.0583 8.01883Z" fill="#715A29"/>
<path d="M11.765 7.99825C11.765 9.33816 10.6594 10.4307 9.30354 10.4307C7.94765 10.4307 6.84207 9.33816 6.84207 7.99825C6.84207 6.65834 7.94765 5.5658 9.30354 5.5658C10.6803 5.58641 11.765 6.65834 11.765 7.99825Z" fill="#9D7C40"/>
<path d="M26.5964 42.2588H8.15623C7.92677 42.2588 7.71817 42.0732 7.71817 41.8465C7.71817 41.6197 7.90591 41.4342 8.15623 41.4342H26.5964C26.8259 41.4342 27.0345 41.6197 27.0345 41.8465C27.0345 42.0732 26.8259 42.2588 26.5964 42.2588Z" fill="#715A29"/>
<path d="M21.8821 8.45176H15.0192C14.7897 8.45176 14.5811 8.26623 14.5811 8.03948C14.5811 7.81272 14.7688 7.6272 15.0192 7.6272H21.8821C22.1115 7.6272 22.3201 7.81272 22.3201 8.03948C22.2993 8.26623 22.1115 8.45176 21.8821 8.45176Z" fill="#715A29"/>
<path d="M21.8821 10.5132H15.0192C14.7897 10.5132 14.5811 10.3276 14.5811 10.1009C14.5811 9.87412 14.7688 9.6886 15.0192 9.6886H21.8821C22.1115 9.6886 22.3201 9.87412 22.3201 10.1009C22.3201 10.3276 22.1115 10.5132 21.8821 10.5132Z" fill="#715A29"/>
<path d="M30.4555 16.4912H5.1524C4.92294 16.4912 4.71434 16.3057 4.71434 16.079C4.71434 15.8522 4.90208 15.6667 5.1524 15.6667H30.4555C30.685 15.6667 30.8936 15.8522 30.8936 16.079C30.8936 16.3057 30.685 16.4912 30.4555 16.4912Z" fill="#715A29"/>
<path d="M30.4555 20.8202H5.1524C4.92294 20.8202 4.71434 20.5316 4.71434 20.3048C4.71434 20.0781 4.90208 19.7895 5.1524 19.7895H30.4555C30.685 19.7895 30.8936 20.0781 30.8936 20.3048C30.8936 20.5316 30.685 20.8202 30.4555 20.8202Z" fill="#715A29"/>
<path d="M30.4555 24.5307H5.1524C4.92294 24.5307 4.71434 24.3452 4.71434 24.1185C4.71434 23.8917 4.90208 23.7062 5.1524 23.7062H30.4555C30.685 23.7062 30.8936 23.8917 30.8936 24.1185C30.8936 24.3452 30.685 24.5307 30.4555 24.5307Z" fill="#715A29"/>
<path d="M30.4555 28.6535H5.1524C4.92294 28.6535 4.71434 28.468 4.71434 28.2412C4.71434 28.0144 4.90208 27.8289 5.1524 27.8289H30.4555C30.685 27.8289 30.8936 28.0144 30.8936 28.2412C30.8936 28.468 30.685 28.6535 30.4555 28.6535Z" fill="#715A29"/>
<path d="M30.4555 32.9825H5.1524C4.92294 32.9825 4.71434 32.7969 4.71434 32.5702C4.71434 32.3434 4.90208 32.1579 5.1524 32.1579H30.4555C30.685 32.1579 30.8936 32.3434 30.8936 32.5702C30.8936 32.7969 30.685 32.9825 30.4555 32.9825Z" fill="#715A29"/>
<path d="M6.1954 41.9496C6.04938 41.9496 5.90336 41.8671 5.81992 41.7228C5.71562 41.5167 5.7782 41.2693 5.9868 41.1456L13.7884 36.961C13.9553 36.8785 14.143 36.8991 14.2891 37.0228C14.4142 37.1465 14.4559 37.332 14.3934 37.4969C14.0805 38.2184 13.7676 39.043 13.6007 39.5789C14.0805 39.2903 14.748 38.8162 15.1652 38.5276C16.1456 37.8474 16.4793 37.6206 16.7088 37.5794C16.8965 37.5382 17.0843 37.6 17.2094 37.7649C17.2929 37.868 17.418 38.0123 17.2094 38.6719C18.0021 38.0123 18.8991 37.2702 19.4832 36.961C20.0255 36.6724 20.4219 36.8785 20.5888 37.1671C20.7348 37.4351 20.7348 37.8886 20.6513 38.3421C21.0477 38.0947 21.4023 37.8886 21.4857 37.8267C21.6526 37.7237 21.8821 37.7237 22.0281 37.8474C22.2993 38.0741 22.195 38.3215 22.0281 38.7132C21.9447 38.9193 21.6943 39.5377 21.6735 39.8057C21.6943 39.8057 21.7361 39.7851 21.7778 39.7851C23.2797 39.2903 24.8025 38.5482 25.616 38.136C25.8246 38.0329 26.0749 38.1153 26.2001 38.3215C26.3044 38.5276 26.2209 38.7956 26.0123 38.8987C25.1779 39.311 23.6134 40.0943 22.049 40.589C21.59 40.7333 21.2563 40.6921 21.0268 40.4447C20.7556 40.1355 20.7765 39.7026 20.9434 39.1667C20.7974 39.2491 20.6722 39.3316 20.547 39.414C20.3176 39.5583 20.109 39.682 19.9838 39.7645C19.963 39.7851 19.9421 39.7851 19.9421 39.8057C19.5458 40.0531 19.3163 39.7232 19.2954 39.7026C19.1494 39.4553 19.1494 39.3316 19.4623 39.1254L19.504 39.1048C19.6709 38.9399 19.9212 38.136 19.9004 37.7649C18.8365 38.3421 16.3959 40.589 16.375 40.6096C16.229 40.7539 15.9996 40.7539 15.8327 40.6303C15.6658 40.5066 15.6032 40.2798 15.7075 40.0943C15.9161 39.7026 16.1247 39.2491 16.2707 38.8574C16.083 38.9811 15.8953 39.1048 15.7284 39.2285C13.9136 40.5066 13.4129 40.7952 12.9957 40.6303C12.8289 40.5684 12.7246 40.4241 12.7037 40.2592C12.6411 39.9088 12.9123 39.0636 13.2043 38.2803L6.46658 41.9083C6.32056 41.9289 6.25798 41.9496 6.1954 41.9496Z" fill="#715A29"/>
<path d="M45.8919 23.6649C45.8919 24.5926 45.1201 25.3553 44.1814 25.3553H41.1358C40.1971 25.3553 39.4253 24.5926 39.4253 23.6649V12.2035C39.4253 11.2759 40.1971 10.5132 41.1358 10.5132H44.1814C45.1201 10.5132 45.8919 11.2759 45.8919 12.2035V23.6649Z" fill="#715A29"/>
<path d="M48.5828 23.129C47.1435 23.129 46.7263 22.2426 46.7263 21.7684V10.9048C46.7263 10.2864 46.5594 10.1009 46.4342 10.1009H41.1775C40.9481 10.1009 40.7395 9.8123 40.7395 9.58554C40.7395 9.35879 40.9272 9.07019 41.1775 9.07019H46.4551C46.5177 9.07019 46.8306 9.17326 47.1226 9.46186C47.4147 9.75045 47.5607 10.307 47.5607 10.9048V21.7478C47.5607 21.8303 47.665 22.2632 48.562 22.2632C48.7914 22.2632 49 22.4487 49 22.6961C49 22.9434 48.8123 23.129 48.5828 23.129Z" fill="#9D7C40"/>
<path d="M45.8919 22.057H39.8425V22.6754H45.8919V22.057Z" fill="white"/>
<path d="M41.9285 23.8711C41.9285 24.2215 41.7616 24.5307 41.407 24.5307H41.3653C41.0106 24.5307 40.8646 24.2215 40.8646 23.8711V12.4096C40.8646 12.0592 41.0106 11.75 41.3653 11.75H41.407C41.7616 11.75 41.9285 12.0592 41.9285 12.4096V23.8711Z" fill="#9D7C40"/>
<path d="M41.9285 41.2487C41.9285 41.4755 41.7407 41.6404 41.5321 41.6404H41.4904C41.261 41.6404 41.0941 41.4548 41.0941 41.2487V26.7777C41.0941 26.5509 41.2818 26.386 41.4904 26.386H41.5321C41.7616 26.386 41.9285 26.5715 41.9285 26.7777V41.2487Z" fill="#9D7C40"/>
<path d="M41.5113 22.057H40.8855V22.6754H41.5113V22.057Z" fill="#FBFADF"/>
</g>
<defs>
<clipPath id="clip0_34_320">
<rect width="49" height="47" fill="white"/>
</clipPath>
</defs>
</svg>
