<svg width="106" height="106" viewBox="0 0 106 106" fill="none" xmlns="http://www.w3.org/2000/svg">
<path d="M75.6776 69.8552C76.0749 70.1033 76.5218 70.3019 76.8198 70.6494C85.9568 79.7826 95.0939 88.9159 104.281 98.0492C105.572 99.3398 106.317 100.73 105.87 102.566C105.075 105.892 101.103 107.133 98.6693 104.8C95.2925 101.573 92.0151 98.2478 88.688 94.9717C82.6297 88.9159 76.5715 82.9098 70.5629 76.854C70.2649 76.5562 70.0166 76.1591 69.7187 75.762C59.0919 83.9522 47.3726 87.0793 34.4118 84.5975C24.0333 82.612 15.4921 77.3008 9.03661 68.9617C-4.22208 51.6879 -2.73234 27.9612 12.463 12.6232C27.5094 -2.51623 51.3949 -4.30317 68.4772 8.70183C78.0115 15.9489 83.6726 25.6778 85.1126 37.6405C86.5031 49.5038 83.2753 60.1759 75.6776 69.8552ZM42.7047 76.5562C61.3265 76.6058 76.5218 61.5161 76.5715 42.8027C76.6708 24.1391 61.4258 8.85075 42.7544 8.85075C24.0333 8.85075 8.98695 23.8413 8.88763 42.6042C8.73866 61.2679 23.934 76.5066 42.7047 76.5562Z" fill="#1E1D1D"/>
</svg>
