<svg width="72" height="46" viewBox="0 0 72 46" fill="none" xmlns="http://www.w3.org/2000/svg">
<g clip-path="url(#clip0_34_433)">
<path d="M46.4217 17.2225C46.7878 17.8333 46.5193 18.3951 45.7871 18.3951H24.9193C24.2115 18.3951 23.9186 17.8333 24.2603 17.1981L29.3125 8.33034C29.6786 7.69519 30.5573 7.15775 31.2651 7.15775H39.0753C39.7831 7.15775 40.6861 7.69519 41.0522 8.30591L46.4217 17.2225Z" fill="#FFEE1A"/>
<path d="M34.023 31.025C34.3891 31.6357 34.1207 32.3197 33.3885 32.3197H12.5451C11.8373 32.3197 11.5444 31.6357 11.8861 31.025L16.9383 22.4503C17.3044 21.8396 18.1831 21.5709 18.8908 21.5709H26.701C27.4088 21.5709 28.3119 21.8152 28.678 22.4259L34.023 31.025Z" fill="#FFEE1A"/>
<path d="M59.4549 31.025C59.821 31.6357 59.5525 32.3197 58.8203 32.3197H37.9525C37.2447 32.3197 36.9519 31.6357 37.2936 31.025L42.3458 22.4503C42.7119 21.8396 43.5905 21.5709 44.2983 21.5709H52.1085C52.8163 21.5709 53.7193 21.8152 54.0854 22.4259L59.4549 31.025Z" fill="#FFEE1A"/>
<path d="M22.2834 44.7053C22.6495 45.316 22.381 45.9756 21.6488 45.9756H0.805427C0.0976301 45.9756 -0.195251 45.2916 0.146444 44.6808L5.19865 35.9841C5.56475 35.3489 6.44339 34.9825 7.15119 34.9825H14.9614C15.6692 34.9825 16.5722 35.3489 16.9383 35.9596L22.2834 44.7053Z" fill="#FFEE1A"/>
<path d="M47.0563 44.7053C47.4224 45.316 47.1539 45.9756 46.4217 45.9756H25.5539C24.8461 45.9756 24.5532 45.2916 24.8949 44.6808L29.9471 35.9841C30.3132 35.3489 31.1919 34.9825 31.8997 34.9825H39.7098C40.4176 34.9825 41.3207 35.3489 41.6868 35.9596L47.0563 44.7053Z" fill="#FFEE1A"/>
<path d="M71.8292 44.7053C72.1953 45.316 71.9268 45.9756 71.1946 45.9756H50.3268C49.619 45.9756 49.3261 45.2916 49.6678 44.6808L54.72 35.9841C55.0861 35.3489 55.9648 34.9825 56.6726 34.9825H64.4827C65.1905 34.9825 66.0936 35.3489 66.4597 35.9596L71.8292 44.7053Z" fill="#FFEE1A"/>
<path d="M24.9193 18.3951H45.7871C46.4461 18.3951 46.739 17.9065 46.4949 17.1737H30.4597C29.7519 17.1737 29.459 16.7095 29.8007 16.0744L34.8529 7.25545C34.8773 7.23102 34.9017 7.1333 34.9017 7.1333H31.2651C30.5573 7.1333 29.6786 7.67074 29.3125 8.3059L24.2603 17.1492C23.9186 17.7844 24.2115 18.3951 24.9193 18.3951Z" fill="#E5B673"/>
<path d="M12.5451 32.3197H33.4129C33.9986 32.3197 34.2915 32.0754 34.1695 31.5868H18.061C17.3532 31.5868 17.0603 30.854 17.402 30.2432L22.4542 21.5709H18.8908C18.1831 21.5709 17.3044 21.8396 16.9383 22.4748L11.8861 31.0738C11.52 31.6845 11.8129 32.3197 12.5451 32.3197Z" fill="#E5B673"/>
<path d="M47.8861 21.5709H44.3227C43.6149 21.5709 42.7363 21.8396 42.3702 22.4748L38.7092 28.7286L37.318 31.0982C37.2447 31.2204 37.2203 31.2692 37.1959 31.3914C37.0983 31.9044 37.3912 32.3197 37.977 32.3197H58.8203C59.4061 32.3197 59.699 32.0754 59.577 31.5868H43.4685C42.7607 31.5868 42.4678 30.854 42.8095 30.2432L47.8861 21.5709Z" fill="#E5B673"/>
<path d="M6.32136 45.0228C5.61356 45.0228 5.32068 44.3388 5.66237 43.7036L10.739 35.0069H10.7634H7.15119C6.44339 35.0069 5.56475 35.3733 5.19865 36.0085L0.146442 44.7052C-0.21966 45.3404 0.0732216 45.9756 0.805425 45.9756H21.6732C22.2834 45.9756 22.5763 45.487 22.4298 44.9984H6.32136V45.0228Z" fill="#E5B673"/>
<path d="M31.0942 45.0228C30.3864 45.0228 30.0936 44.3388 30.4353 43.7037L35.4875 35.0069H35.5119H31.9241C31.2163 35.0069 30.3376 35.3733 29.9715 36.0085L26.6278 41.7738L24.9193 44.7053C24.8705 44.803 24.8217 44.9007 24.7973 44.9984C24.6508 45.5114 24.9681 46 25.5783 46H46.4461C47.0563 46 47.3491 45.5114 47.2027 45.0228H31.0942Z" fill="#E5B673"/>
<path d="M71.9512 45.0228H55.8671C55.1593 45.0228 54.8664 44.3388 55.2081 43.7037L60.2603 35.0069H60.2847H56.697C55.9892 35.0069 55.1105 35.3733 54.7444 36.0085L51.4007 41.7738L49.6922 44.7053C49.6434 44.803 49.5946 44.9007 49.5702 44.9984C49.4237 45.5114 49.741 46 50.3512 46H71.219C71.8048 46 72.0976 45.5114 71.9512 45.0228Z" fill="#E5B673"/>
<path d="M61.9688 6.79129C58.2102 6.79129 55.1837 3.73765 55.1837 0C55.1837 3.76208 52.1329 6.79129 48.3987 6.79129C52.1573 6.79129 55.1837 9.84493 55.1837 13.5826C55.1837 9.84493 58.2102 6.79129 61.9688 6.79129Z" fill="white"/>
<path d="M65.1417 17.9798C67.1906 17.9798 68.8515 16.3174 68.8515 14.2666C68.8515 12.2158 67.1906 10.5534 65.1417 10.5534C63.0928 10.5534 61.4319 12.2158 61.4319 14.2666C61.4319 16.3174 63.0928 17.9798 65.1417 17.9798Z" fill="white"/>
<path d="M20.6725 10.7488C18.6224 10.7488 16.9627 9.08763 16.9627 7.03558C16.9627 9.08763 15.3031 10.7488 13.2529 10.7488C15.3031 10.7488 16.9627 12.41 16.9627 14.462C16.9627 12.41 18.6224 10.7488 20.6725 10.7488Z" fill="white"/>
</g>
<defs>
<clipPath id="clip0_34_433">
<rect width="72" height="46" fill="white"/>
</clipPath>
</defs>
</svg>
