<svg width="26" height="28" viewBox="0 0 26 28" fill="none" xmlns="http://www.w3.org/2000/svg">
<path d="M25.9709 19.6398L18.6459 26.9752L15.1082 23.4258L16.2918 22.2427L18.6459 24.5827L24.7874 18.4566L25.9709 19.6398ZM12.7542 8.95204H7.70425V7.26934H12.7542V8.95204ZM12.7542 12.3174H7.70425V10.6347H12.7542V12.3174ZM7.70425 14.0001H12.7542V15.6828H7.70425V14.0001ZM6.02092 8.95204H4.3376V7.26934H6.02092V8.95204ZM6.02092 12.3174H4.3376V10.6347H6.02092V12.3174ZM4.3376 14.0001H6.02092V15.6828H4.3376V14.0001ZM14.4375 8.95204V2.22127H2.65427V25.779H14.4375V27.4617H0.970947V0.538574H15.6343L22.8542 7.75575V17.3655L21.1708 19.0482V8.95204H14.4375ZM16.1209 7.26934H19.9741L16.1209 3.41756V7.26934Z" fill="#477E5B"/>
</svg>
