<svg width="22" height="29" viewBox="0 0 22 29" fill="none" xmlns="http://www.w3.org/2000/svg">
<path d="M6.71429 21.6431V18.7859M11 21.6431V15.9288M15.2857 21.6431V13.0716M18.1429 27.3574H3.85714C3.09938 27.3574 2.37266 27.0563 1.83684 26.5205C1.30102 25.9847 1 25.258 1 24.5002V4.50021C1 3.74245 1.30102 3.01572 1.83684 2.4799C2.37266 1.94409 3.09938 1.64307 3.85714 1.64307H11.8371C12.216 1.64315 12.5793 1.79371 12.8471 2.06164L20.5814 9.79592C20.8494 10.0638 20.9999 10.4271 21 10.8059V24.5002C21 25.258 20.699 25.9847 20.1632 26.5205C19.6273 27.0563 18.9006 27.3574 18.1429 27.3574Z" stroke="white" stroke-width="2" stroke-linecap="round" stroke-linejoin="round"/>
</svg>
