<svg width="20" height="17" viewBox="0 0 20 17" fill="none" xmlns="http://www.w3.org/2000/svg">
<path d="M16.7214 15.1948C16.4276 15.4875 16.4276 15.9608 16.7214 16.2504C17.0152 16.54 17.4902 16.5431 17.7809 16.2504L19.7812 14.2575C19.9219 14.1174 20 13.9275 20 13.7282C20 13.5289 19.9219 13.3389 19.7812 13.1988L17.7809 11.2059C17.4871 10.9132 17.012 10.9132 16.7214 11.2059C16.4307 11.4986 16.4276 11.972 16.7214 12.2615L17.4402 12.9777L12.0019 12.984C11.5862 12.984 11.2518 13.3171 11.2518 13.7313C11.2518 14.1454 11.5862 14.4786 12.0019 14.4786H17.4433L16.7214 15.1948ZM3.28176 4.73223L2.5629 4.01605H8.00125C8.41694 4.01605 8.75137 3.68286 8.75137 3.26872C8.75137 2.85458 8.41694 2.5214 8.00125 2.5214H2.55978L3.27864 1.80521C3.57243 1.51251 3.57243 1.0392 3.27864 0.749611C2.98484 0.460022 2.50977 0.456909 2.2191 0.749611L0.218784 2.73937C0.0781372 2.87949 0 3.06943 0 3.26872C0 3.46801 0.0781372 3.65795 0.218784 3.79808L2.2191 5.79095C2.51289 6.08365 2.98797 6.08365 3.27864 5.79095C3.56931 5.49824 3.57243 5.02494 3.27864 4.73535L3.28176 4.73223ZM3.00047 14.4786H10.561C10.4454 14.2544 10.3766 14.0022 10.3766 13.7313C10.3766 12.8376 11.1049 12.1121 12.0019 12.1121H15.6712C15.5462 11.5827 15.69 11.0067 16.1025 10.5925C16.737 9.9604 17.7653 9.9604 18.3997 10.5925L19.003 11.1935V4.51426C19.003 3.41507 18.106 2.5214 17.0027 2.5214H9.4421C9.55774 2.74559 9.6265 2.99782 9.6265 3.26872C9.6265 4.1624 8.89827 4.88793 8.00125 4.88793H4.33193C4.45695 5.41728 4.31317 5.99335 3.90061 6.40749C3.26614 7.0396 2.23785 7.0396 1.60338 6.40749L1.00016 5.80651V12.4857C1.00016 13.5849 1.89717 14.4786 3.00047 14.4786ZM5.00078 12.4857H3.00047V10.4929C4.10377 10.4929 5.00078 11.3865 5.00078 12.4857ZM17.0027 6.50713C15.8994 6.50713 15.0023 5.61345 15.0023 4.51426H17.0027V6.50713ZM10.0016 5.5107C11.6581 5.5107 13.002 6.84966 13.002 8.5C13.002 10.1503 11.6581 11.4893 10.0016 11.4893C8.34505 11.4893 7.00109 10.1503 7.00109 8.5C7.00109 6.84966 8.34505 5.5107 10.0016 5.5107Z" fill="white"/>
</svg>
