<svg width="25" height="26" viewBox="0 0 25 26" fill="none" xmlns="http://www.w3.org/2000/svg">
<path fill-rule="evenodd" clip-rule="evenodd" d="M22.4983 2.15948H11.1741L9.75651 0.741866L9.17278 0.491699H0.833889L0 1.32559V19.6712L0.833889 20.505H9.98999V18.8373H1.63442V8.83059H9.12275L9.70647 8.58042L11.1408 7.14613H21.6644V9.6478L21.6628 10.4984H23.3489V2.99337L22.4983 2.15948ZM21.6478 5.49503H10.8072L10.2235 5.7452L8.78919 7.17949H1.6511V2.17616H8.80587L10.2235 3.59377L10.8239 3.84393H21.6644L21.6478 5.49503ZM19.9967 25.5084H18.3289V20.505H13.3256V18.8373H18.3289V13.8339H19.9967V18.8373H25V20.505H19.9967V25.5084Z" fill="#477E5B"/>
</svg>
