<svg width="20" height="13" viewBox="0 0 20 13" fill="none" xmlns="http://www.w3.org/2000/svg">
<path d="M10 0.458496C10.7735 0.458496 11.5154 0.765787 12.0624 1.31277C12.6094 1.85975 12.9167 2.60161 12.9167 3.37516C12.9167 4.14871 12.6094 4.89058 12.0624 5.43756C11.5154 5.98454 10.7735 6.29183 10 6.29183C9.22645 6.29183 8.48459 5.98454 7.93761 5.43756C7.39062 4.89058 7.08333 4.14871 7.08333 3.37516C7.08333 2.60161 7.39062 1.85975 7.93761 1.31277C8.48459 0.765787 9.22645 0.458496 10 0.458496ZM4.16667 2.54183C4.63333 2.54183 5.06667 2.66683 5.44167 2.89183C5.31667 4.0835 5.66667 5.26683 6.38333 6.19183C5.96667 6.99183 5.13333 7.54183 4.16667 7.54183C3.50363 7.54183 2.86774 7.27844 2.3989 6.8096C1.93006 6.34076 1.66667 5.70487 1.66667 5.04183C1.66667 4.37879 1.93006 3.7429 2.3989 3.27406C2.86774 2.80522 3.50363 2.54183 4.16667 2.54183ZM15.8333 2.54183C16.4964 2.54183 17.1323 2.80522 17.6011 3.27406C18.0699 3.7429 18.3333 4.37879 18.3333 5.04183C18.3333 5.70487 18.0699 6.34076 17.6011 6.8096C17.1323 7.27844 16.4964 7.54183 15.8333 7.54183C14.8667 7.54183 14.0333 6.99183 13.6167 6.19183C14.3432 5.25385 14.6805 4.07199 14.5583 2.89183C14.9333 2.66683 15.3667 2.54183 15.8333 2.54183ZM4.58333 11.0835C4.58333 9.3585 7.00833 7.9585 10 7.9585C12.9917 7.9585 15.4167 9.3585 15.4167 11.0835V12.5418H4.58333V11.0835ZM0 12.5418V11.2918C0 10.1335 1.575 9.1585 3.70833 8.87516C3.21667 9.44183 2.91667 10.2252 2.91667 11.0835V12.5418H0ZM20 12.5418H17.0833V11.0835C17.0833 10.2252 16.7833 9.44183 16.2917 8.87516C18.425 9.1585 20 10.1335 20 11.2918V12.5418Z" fill="white"/>
</svg>
