<svg width="26" height="24" viewBox="0 0 26 24" fill="none" xmlns="http://www.w3.org/2000/svg">
<path d="M17.8077 19.5604L19.1182 20.8205C17.3541 22.3326 14.1283 23.3406 10.4237 23.3406C4.86671 23.3406 0.343018 21.0851 0.343018 18.3003V5.6995C0.343018 2.91472 4.85411 0.65918 10.4237 0.65918C14.1409 0.65918 17.3541 1.66724 19.1182 3.17934L17.8077 4.43942L17.3541 4.94345C16.283 4.1496 13.9267 3.17934 10.4237 3.17934C5.54715 3.17934 2.86318 5.06946 2.86318 5.6995C2.86318 6.32954 5.54715 8.21966 10.4237 8.21966C12.15 8.21966 13.5739 7.98025 14.7331 7.64003L15.9428 8.8497H12.3138V10.639C11.6837 10.702 11.0537 10.7398 10.4237 10.7398C7.41207 10.7398 4.7155 10.072 2.86318 9.02612V12.5669C4.50128 13.764 7.37427 14.5201 10.4237 14.5201C11.0537 14.5201 11.6837 14.4823 12.3138 14.4193V15.1501H15.9428L14.6827 16.4102L14.8339 16.5488C13.4605 16.8638 11.9862 17.0402 10.4237 17.0402C7.55068 17.0402 4.89191 16.4732 2.86318 15.4903V18.3003C2.86318 18.9303 5.54715 20.8205 10.4237 20.8205C13.9267 20.8205 16.283 19.8502 17.3541 19.069L17.8077 19.5604ZM19.1434 5.80031L17.3541 7.58962L20.5043 10.7398H14.2039V13.26H20.5043L17.3541 16.4102L19.1434 18.1995L25.343 11.9999L19.1434 5.80031Z" fill="#477E5B"/>
</svg>
