<svg width="25" height="26" viewBox="0 0 25 26" fill="none" xmlns="http://www.w3.org/2000/svg">
<path d="M21.27 21.5938L24.0288 24.3647L22.9302 25.4634L20.1592 22.7046L17.3882 25.4756L16.2896 24.3647L19.0605 21.5938L16.2896 18.8228L17.3882 17.7241L20.1592 20.4951L22.9302 17.7241L24.0288 18.835L21.27 21.5938ZM5.31543 8.3125H3.75293V6.75H5.31543V8.3125ZM5.31543 11.4375H3.75293V9.875H5.31543V11.4375ZM3.75293 13H5.31543V14.5625H3.75293V13ZM2.19043 23.9375H14.6904V25.5H0.62793V0.5H14.2388L20.9404 7.20166V16.125H19.3779V8.3125H13.1279V2.0625H2.19043V23.9375ZM14.6904 6.75H18.2671L14.6904 3.17334V6.75ZM11.5654 8.3125H6.87793V6.75H11.5654V8.3125ZM11.5654 11.4375H6.87793V9.875H11.5654V11.4375ZM6.87793 13H11.5654V14.5625H6.87793V13Z" fill="#477E5B"/>
</svg>
