<svg width="26" height="28" viewBox="0 0 26 28" fill="none" xmlns="http://www.w3.org/2000/svg">
<path d="M2.79751 10.8956H20.1823V13.3792H22.6659V5.92852C22.6659 4.56257 21.5483 3.44497 20.1823 3.44497H18.9406V0.961426H16.457V3.44497H6.52283V0.961426H4.03928V3.44497H2.79751C1.41914 3.44497 0.326383 4.56257 0.326383 5.92852L0.313965 23.3133C0.313965 23.972 0.575623 24.6037 1.04138 25.0695C1.50713 25.5352 2.13883 25.7969 2.79751 25.7969H11.4899V23.3133H2.79751V10.8956ZM2.79751 5.92852H20.1823V8.41207H2.79751V5.92852ZM24.9507 18.6939L24.0691 19.5756L21.4365 16.943L22.3182 16.0614C22.4331 15.9463 22.5695 15.8549 22.7197 15.7926C22.87 15.7303 23.031 15.6982 23.1936 15.6982C23.3563 15.6982 23.5173 15.7303 23.6675 15.7926C23.8177 15.8549 23.9542 15.9463 24.0691 16.0614L24.9507 16.943C25.435 17.4273 25.435 18.2097 24.9507 18.6939ZM20.5549 17.8247L23.1874 20.4573L16.606 27.0387H13.9735V24.4061L20.5549 17.8247Z" fill="#477E5B"/>
</svg>
