<svg width="20" height="3" viewBox="0 0 20 3" fill="none" xmlns="http://www.w3.org/2000/svg">
<path d="M0.138672 1.43066C0.138672 1.08887 0.246094 0.800781 0.460938 0.566406C0.685547 0.322266 0.988281 0.200195 1.36914 0.200195C1.75977 0.200195 2.06738 0.317383 2.29199 0.551758C2.5166 0.786133 2.62891 1.0791 2.62891 1.43066C2.62891 1.7627 2.5166 2.0459 2.29199 2.28027C2.06738 2.51465 1.75977 2.63184 1.36914 2.63184C0.988281 2.63184 0.685547 2.51465 0.460938 2.28027C0.246094 2.0459 0.138672 1.7627 0.138672 1.43066ZM8.81641 1.43066C8.81641 1.08887 8.92383 0.800781 9.13867 0.566406C9.36328 0.322266 9.66602 0.200195 10.0469 0.200195C10.4375 0.200195 10.7451 0.317383 10.9697 0.551758C11.1943 0.786133 11.3066 1.0791 11.3066 1.43066C11.3066 1.7627 11.1943 2.0459 10.9697 2.28027C10.7451 2.51465 10.4375 2.63184 10.0469 2.63184C9.66602 2.63184 9.36328 2.51465 9.13867 2.28027C8.92383 2.0459 8.81641 1.7627 8.81641 1.43066ZM17.4941 1.43066C17.4941 1.08887 17.6016 0.800781 17.8164 0.566406C18.041 0.322266 18.3438 0.200195 18.7246 0.200195C19.1152 0.200195 19.4229 0.317383 19.6475 0.551758C19.8721 0.786133 19.9844 1.0791 19.9844 1.43066C19.9844 1.7627 19.8721 2.0459 19.6475 2.28027C19.4229 2.51465 19.1152 2.63184 18.7246 2.63184C18.3438 2.63184 18.041 2.51465 17.8164 2.28027C17.6016 2.0459 17.4941 1.7627 17.4941 1.43066Z" fill="#477E5B"/>
</svg>
