<svg width="20" height="23" viewBox="0 0 20 23" fill="none" xmlns="http://www.w3.org/2000/svg">
<path d="M10 22.5C4.443 21.265 0 16.022 0 10.5V4.5L10 0.5L20 4.5V10.5C20 16.024 15.557 21.265 10 22.5ZM2 5.5V10.5C2.05715 12.8121 2.87036 15.0418 4.31518 16.8479C5.75999 18.6539 7.75681 19.9367 10 20.5C12.2432 19.9367 14.24 18.6539 15.6848 16.8479C17.1296 15.0418 17.9429 12.8121 18 10.5V5.5L10 2.5L2 5.5Z" fill="white"/>
<path d="M10 10.5C11.3807 10.5 12.5 9.38071 12.5 8C12.5 6.61929 11.3807 5.5 10 5.5C8.61929 5.5 7.5 6.61929 7.5 8C7.5 9.38071 8.61929 10.5 10 10.5Z" fill="white"/>
<path d="M5 14.5C5.49289 15.3982 6.21559 16.1493 7.09414 16.6764C7.97269 17.2036 8.97552 17.4878 10 17.5C11.0245 17.4878 12.0273 17.2036 12.9059 16.6764C13.7844 16.1493 14.5071 15.3982 15 14.5C14.975 12.604 11.658 11.5 10 11.5C8.333 11.5 5.025 12.604 5 14.5Z" fill="white"/>
</svg>
