<svg width="20" height="13" viewBox="0 0 20 13" fill="none" xmlns="http://www.w3.org/2000/svg">
<path d="M18.3333 12.3332H13.3333V8.99984H11.1C10.15 11.0165 8.1 12.3332 5.83333 12.3332C2.61667 12.3332 0 9.7165 0 6.49984C0 3.28317 2.61667 0.666504 5.83333 0.666504C8.1 0.666504 10.1417 1.98317 11.1 3.99984H20V8.99984H18.3333V12.3332ZM15 10.6665H16.6667V7.33317H18.3333V5.6665H9.95L9.75833 5.10817C9.175 3.44984 7.59167 2.33317 5.83333 2.33317C3.53333 2.33317 1.66667 4.19984 1.66667 6.49984C1.66667 8.79984 3.53333 10.6665 5.83333 10.6665C7.59167 10.6665 9.175 9.54984 9.75833 7.8915L9.95 7.33317H15V10.6665ZM5.83333 8.99984C4.45833 8.99984 3.33333 7.87484 3.33333 6.49984C3.33333 5.12484 4.45833 3.99984 5.83333 3.99984C7.20833 3.99984 8.33333 5.12484 8.33333 6.49984C8.33333 7.87484 7.20833 8.99984 5.83333 8.99984ZM5.83333 5.6665C5.375 5.6665 5 6.0415 5 6.49984C5 6.95817 5.375 7.33317 5.83333 7.33317C6.29167 7.33317 6.66667 6.95817 6.66667 6.49984C6.66667 6.0415 6.29167 5.6665 5.83333 5.6665Z" fill="white"/>
</svg>
