<svg width="20" height="23" viewBox="0 0 20 23" fill="none" xmlns="http://www.w3.org/2000/svg">
<path d="M13.8529 16.1177V20.7353H1.53921V2.2648H9.23525V0.725586H1.53921C1.13099 0.725586 0.739482 0.887752 0.450824 1.17641C0.162166 1.46507 0 1.85657 0 2.2648V20.7353C0 21.1435 0.162166 21.535 0.450824 21.8237C0.739482 22.1123 1.13099 22.2745 1.53921 22.2745H13.8529C14.2611 22.2745 14.6526 22.1123 14.9413 21.8237C15.2299 21.535 15.3921 21.1435 15.3921 20.7353V16.1177H13.8529Z" fill="white"/>
<path d="M19.6557 3.61923L17.116 1.07953C16.8858 0.853915 16.5764 0.727539 16.2541 0.727539C15.9317 0.727539 15.6223 0.853915 15.3921 1.07953L4.61763 11.854V16.1176H8.87354L19.648 5.34314C19.8736 5.11297 20 4.8035 20 4.48119C20 4.15887 19.8736 3.84941 19.648 3.61923H19.6557ZM8.23477 14.5784H6.15684V12.5005L13.4219 5.2277L15.5075 7.31333L8.23477 14.5784ZM16.5927 6.22819L14.507 4.14256L16.2541 2.39556L18.3397 4.48119L16.5927 6.22819Z" fill="white"/>
</svg>
