<svg width="20" height="24" viewBox="0 0 20 24" fill="none" xmlns="http://www.w3.org/2000/svg">
<path d="M13.2479 14.6248C13.103 14.5774 12.1869 14.1645 12.7593 12.4243H12.7511C14.2434 10.8874 15.3838 8.41424 15.3838 5.97942C15.3838 2.23557 12.8943 0.272949 10.0009 0.272949C7.10574 0.272949 4.6299 2.23466 4.6299 5.97942C4.6299 8.42427 5.7639 10.9074 7.26527 12.4407C7.8505 13.9758 6.80401 14.5455 6.58523 14.6248C3.55515 15.7214 0 17.7187 0 19.6905V20.4297C0 23.1162 5.20875 23.7269 10.0292 23.7269C14.8569 23.7269 20 23.1162 20 20.4297V19.6905C20 17.6595 16.4275 15.6777 13.2479 14.6248ZM8.21969 22.5637C8.21969 20.2401 9.69918 17.1034 9.69918 17.1034L8.67548 16.3003C8.67548 15.5327 10 14.7296 10 14.7296C10 14.7296 11.3209 15.5455 11.3209 16.3003L10.3008 17.1034C10.3008 17.1034 11.7803 20.2283 11.7803 22.5893C11.7803 22.9594 8.21969 22.8737 8.21969 22.5637Z" fill="#1A5131"/>
</svg>
