<svg width="25" height="25" viewBox="0 0 25 25" fill="none" xmlns="http://www.w3.org/2000/svg">
<path d="M21.3281 3.67188C20.1717 2.50757 18.7963 1.58369 17.2811 0.953486C15.7659 0.323283 14.141 -0.00077243 12.5 1.38257e-06C9.18479 1.38257e-06 6.00537 1.31696 3.66117 3.66117C1.31696 6.00537 0 9.1848 0 12.5C0 15.8152 1.31696 18.9946 3.66117 21.3388C6.00537 23.683 9.18479 25 12.5 25C18.3281 25 23.1875 21.0156 24.5781 15.625H21.3281C20.6845 17.4524 19.4896 19.035 17.9084 20.1544C16.3271 21.2739 14.4374 21.8751 12.5 21.875C10.0136 21.875 7.62903 20.8873 5.87087 19.1291C4.11272 17.371 3.125 14.9864 3.125 12.5C3.125 10.0136 4.11272 7.62903 5.87087 5.87088C7.62903 4.11272 10.0136 3.125 12.5 3.125C15.0938 3.125 17.4062 4.20313 19.0937 5.90625L14.0625 10.9375H25V1.38257e-06L21.3281 3.67188Z" fill="#477E5B"/>
</svg>
