<svg width="26" height="24" viewBox="0 0 26 24" fill="none" xmlns="http://www.w3.org/2000/svg">
<path d="M10.6487 10.0852C9.27881 10.0852 8.10613 9.59744 7.13062 8.62194C6.15511 7.64643 5.66736 6.47374 5.66736 5.10388C5.66736 3.73402 6.15511 2.56133 7.13062 1.58582C8.10613 0.610313 9.27881 0.122559 10.6487 0.122559C12.0185 0.122559 13.1912 0.610313 14.1667 1.58582C15.1422 2.56133 15.63 3.73402 15.63 5.10388C15.63 6.47374 15.1422 7.64643 14.1667 8.62194C13.1912 9.59744 12.0185 10.0852 10.6487 10.0852ZM23.6001 23.5348L20.4868 20.4214C20.0509 20.6705 19.5839 20.8781 19.0858 21.0441C18.5877 21.2101 18.0584 21.2932 17.498 21.2932C15.9413 21.2932 14.618 20.7485 13.5279 19.6593C12.4386 18.5692 11.894 17.2458 11.894 15.6892C11.894 14.1325 12.4386 12.8092 13.5279 11.7191C14.618 10.6298 15.9413 10.0852 17.498 10.0852C19.0547 10.0852 20.378 10.6298 21.4681 11.7191C22.5574 12.8092 23.102 14.1325 23.102 15.6892C23.102 16.2496 23.019 16.7788 22.8529 17.277C22.6869 17.7751 22.4793 18.2421 22.2302 18.678L25.3436 21.7913C25.5719 22.0196 25.686 22.3102 25.686 22.663C25.686 23.0159 25.5719 23.3064 25.3436 23.5348C25.1153 23.7631 24.8247 23.8772 24.4718 23.8772C24.119 23.8772 23.8284 23.7631 23.6001 23.5348ZM17.498 18.8025C18.3697 18.8025 19.1065 18.5016 19.7085 17.8996C20.3104 17.2977 20.6113 16.5609 20.6113 15.6892C20.6113 14.8175 20.3104 14.0806 19.7085 13.4787C19.1065 12.8768 18.3697 12.5759 17.498 12.5759C16.6263 12.5759 15.8894 12.8768 15.2875 13.4787C14.6856 14.0806 14.3847 14.8175 14.3847 15.6892C14.3847 16.5609 14.6856 17.2977 15.2875 17.8996C15.8894 18.5016 16.6263 18.8025 17.498 18.8025ZM3.1767 20.0478C2.49176 20.0478 1.90521 19.8042 1.41704 19.3168C0.929705 18.8287 0.686035 18.2421 0.686035 17.5572V16.592C0.686035 15.8864 0.862457 15.2326 1.2153 14.6307C1.56814 14.0287 2.0559 13.5721 2.67856 13.2608C3.73709 12.7211 4.93053 12.2645 6.25889 11.8909C7.58724 11.5173 9.06088 11.3305 10.6798 11.3305C10.2647 11.9739 9.94797 12.6639 9.72962 13.4003C9.5121 14.1375 9.40335 14.9005 9.40335 15.6892C9.40335 16.4571 9.5121 17.2093 9.72962 17.9457C9.94797 18.683 10.2647 19.3837 10.6798 20.0478H3.1767Z" fill="#477E5B"/>
</svg>
