<svg width="20" height="21" viewBox="0 0 20 21" fill="none" xmlns="http://www.w3.org/2000/svg">
<path d="M12.0317 0.756348C12.1869 0.756352 12.338 0.803122 12.4634 0.889922C12.5888 0.976721 12.682 1.09907 12.7295 1.23935L13.5357 3.61818C13.8743 3.77547 14.1983 3.95224 14.5076 4.15129L17.0816 3.62514C17.2334 3.59437 17.3915 3.61014 17.5333 3.67017C17.675 3.73021 17.793 3.83141 17.8703 3.9592L19.902 7.29847C19.9795 7.42619 20.0124 7.57401 19.9958 7.7206C19.9792 7.8672 19.914 8.00501 19.8096 8.11415L18.0432 9.96543C18.069 10.3204 18.069 10.6767 18.0432 11.0317L19.8096 12.8857C19.914 12.9949 19.9792 13.1327 19.9958 13.2793C20.0124 13.4259 19.9795 13.5737 19.902 13.7014L17.8703 17.0421C17.7928 17.1696 17.6747 17.2705 17.533 17.3303C17.3913 17.3901 17.2332 17.4056 17.0816 17.3747L14.5076 16.8486C14.1997 17.0462 13.8743 17.2244 13.5371 17.3817L12.7295 19.7605C12.682 19.9008 12.5888 20.0232 12.4634 20.11C12.338 20.1968 12.1869 20.2435 12.0317 20.2435H7.9683C7.81313 20.2435 7.66196 20.1968 7.53657 20.11C7.41118 20.0232 7.31803 19.9008 7.27055 19.7605L6.46579 17.3831C6.12808 17.2263 5.80235 17.0472 5.49098 16.8472L2.91838 17.3747C2.76661 17.4055 2.60847 17.3897 2.46675 17.3297C2.32502 17.2697 2.20702 17.1685 2.12974 17.0407L0.0980457 13.7014C0.0204638 13.5737 -0.0123975 13.4259 0.00420008 13.2793C0.0207977 13.1327 0.0859965 12.9949 0.190395 12.8857L1.95677 11.0317C1.93118 10.6776 1.93118 10.3223 1.95677 9.96821L0.190395 8.11415C0.0859965 8.00501 0.0207977 7.8672 0.00420008 7.7206C-0.0123975 7.57401 0.0204638 7.42619 0.0980457 7.29847L2.12974 3.95781C2.20723 3.83027 2.32533 3.72936 2.46704 3.66958C2.60874 3.6098 2.76677 3.59424 2.91838 3.62514L5.49098 4.15268C5.80175 3.95364 6.12717 3.77408 6.46579 3.61679L7.27202 1.23935C7.31934 1.09952 7.41205 0.977497 7.53685 0.89074C7.66165 0.803982 7.81217 0.75694 7.96684 0.756348H12.0302H12.0317ZM11.4952 2.14829H8.50481L7.6722 4.60785L7.11077 4.86814C6.83477 4.99639 6.56834 5.14242 6.31334 5.30521L5.79442 5.63928L3.1324 5.09364L1.63721 7.55459L3.46222 9.47268L3.41824 10.0629C3.39718 10.3539 3.39718 10.646 3.41824 10.937L3.46222 11.5272L1.63428 13.4453L3.13093 15.9062L5.79295 15.362L6.31187 15.6947C6.56687 15.8575 6.83331 16.0035 7.1093 16.1317L7.67073 16.392L8.50481 18.8516H11.4981L12.3337 16.3906L12.8936 16.1317C13.1693 16.0038 13.4353 15.8577 13.6896 15.6947L14.207 15.362L16.8705 15.9062L18.3657 13.4453L16.5392 11.5272L16.5832 10.937C16.6044 10.6455 16.6044 10.353 16.5832 10.0615L16.5392 9.47129L18.3672 7.55459L16.8705 5.09364L14.207 5.63649L13.6896 5.30521C13.4353 5.1421 13.1693 4.99605 12.8936 4.86814L12.3337 4.60924L11.4967 2.14829H11.4952ZM10 6.32411C11.1663 6.32411 12.2849 6.76406 13.1096 7.54718C13.9343 8.3303 14.3976 9.39244 14.3976 10.4999C14.3976 11.6074 13.9343 12.6696 13.1096 13.4527C12.2849 14.2358 11.1663 14.6758 10 14.6758C8.83368 14.6758 7.71513 14.2358 6.89042 13.4527C6.06571 12.6696 5.60239 11.6074 5.60239 10.4999C5.60239 9.39244 6.06571 8.3303 6.89042 7.54718C7.71513 6.76406 8.83368 6.32411 10 6.32411ZM10 7.71605C9.22245 7.71605 8.47675 8.00936 7.92695 8.53143C7.37714 9.05351 7.06826 9.76161 7.06826 10.4999C7.06826 11.2383 7.37714 11.9464 7.92695 12.4684C8.47675 12.9905 9.22245 13.2838 10 13.2838C10.7775 13.2838 11.5232 12.9905 12.0731 12.4684C12.6229 11.9464 12.9317 11.2383 12.9317 10.4999C12.9317 9.76161 12.6229 9.05351 12.0731 8.53143C11.5232 8.00936 10.7775 7.71605 10 7.71605Z" fill="white"/>
</svg>
