<svg width="20" height="21" viewBox="0 0 20 21" fill="none" xmlns="http://www.w3.org/2000/svg">
<path fill-rule="evenodd" clip-rule="evenodd" d="M4.54545 0.5C3.33993 0.5 2.18377 0.978895 1.33133 1.83133C0.478895 2.68377 0 3.83993 0 5.04545C0 6.25098 0.478895 7.40714 1.33133 8.25958C2.18377 9.11201 3.33993 9.59091 4.54545 9.59091C5.75098 9.59091 6.90714 9.11201 7.75958 8.25958C8.61201 7.40714 9.09091 6.25098 9.09091 5.04545C9.09091 3.83993 8.61201 2.68377 7.75958 1.83133C6.90714 0.978895 5.75098 0.5 4.54545 0.5ZM1.81818 5.04545C1.81818 4.32214 2.10552 3.62844 2.61698 3.11698C3.12844 2.60552 3.82214 2.31818 4.54545 2.31818C5.26877 2.31818 5.96247 2.60552 6.47393 3.11698C6.98539 3.62844 7.27273 4.32214 7.27273 5.04545C7.27273 5.76877 6.98539 6.46247 6.47393 6.97393C5.96247 7.48539 5.26877 7.77273 4.54545 7.77273C3.82214 7.77273 3.12844 7.48539 2.61698 6.97393C2.10552 6.46247 1.81818 5.76877 1.81818 5.04545ZM15.4545 0.5C14.249 0.5 13.0929 0.978895 12.2404 1.83133C11.388 2.68377 10.9091 3.83993 10.9091 5.04545C10.9091 6.25098 11.388 7.40714 12.2404 8.25958C13.0929 9.11201 14.249 9.59091 15.4545 9.59091C16.6601 9.59091 17.8162 9.11201 18.6687 8.25958C19.5211 7.40714 20 6.25098 20 5.04545C20 3.83993 19.5211 2.68377 18.6687 1.83133C17.8162 0.978895 16.6601 0.5 15.4545 0.5ZM12.7273 5.04545C12.7273 4.32214 13.0146 3.62844 13.5261 3.11698C14.0375 2.60552 14.7312 2.31818 15.4545 2.31818C16.1779 2.31818 16.8716 2.60552 17.383 3.11698C17.8945 3.62844 18.1818 4.32214 18.1818 5.04545C18.1818 5.76877 17.8945 6.46247 17.383 6.97393C16.8716 7.48539 16.1779 7.77273 15.4545 7.77273C14.7312 7.77273 14.0375 7.48539 13.5261 6.97393C13.0146 6.46247 12.7273 5.76877 12.7273 5.04545ZM0 15.9545C0 14.749 0.478895 13.5929 1.33133 12.7404C2.18377 11.888 3.33993 11.4091 4.54545 11.4091C5.75098 11.4091 6.90714 11.888 7.75958 12.7404C8.61201 13.5929 9.09091 14.749 9.09091 15.9545C9.09091 17.1601 8.61201 18.3162 7.75958 19.1687C6.90714 20.0211 5.75098 20.5 4.54545 20.5C3.33993 20.5 2.18377 20.0211 1.33133 19.1687C0.478895 18.3162 0 17.1601 0 15.9545ZM4.54545 13.2273C3.82214 13.2273 3.12844 13.5146 2.61698 14.0261C2.10552 14.5375 1.81818 15.2312 1.81818 15.9545C1.81818 16.6779 2.10552 17.3716 2.61698 17.883C3.12844 18.3945 3.82214 18.6818 4.54545 18.6818C5.26877 18.6818 5.96247 18.3945 6.47393 17.883C6.98539 17.3716 7.27273 16.6779 7.27273 15.9545C7.27273 15.2312 6.98539 14.5375 6.47393 14.0261C5.96247 13.5146 5.26877 13.2273 4.54545 13.2273ZM15.4545 11.4091C14.249 11.4091 13.0929 11.888 12.2404 12.7404C11.388 13.5929 10.9091 14.749 10.9091 15.9545C10.9091 17.1601 11.388 18.3162 12.2404 19.1687C13.0929 20.0211 14.249 20.5 15.4545 20.5C16.6601 20.5 17.8162 20.0211 18.6687 19.1687C19.5211 18.3162 20 17.1601 20 15.9545C20 14.749 19.5211 13.5929 18.6687 12.7404C17.8162 11.888 16.6601 11.4091 15.4545 11.4091ZM12.7273 15.9545C12.7273 15.2312 13.0146 14.5375 13.5261 14.0261C14.0375 13.5146 14.7312 13.2273 15.4545 13.2273C16.1779 13.2273 16.8716 13.5146 17.383 14.0261C17.8945 14.5375 18.1818 15.2312 18.1818 15.9545C18.1818 16.6779 17.8945 17.3716 17.383 17.883C16.8716 18.3945 16.1779 18.6818 15.4545 18.6818C14.7312 18.6818 14.0375 18.3945 13.5261 17.883C13.0146 17.3716 12.7273 16.6779 12.7273 15.9545Z" fill="white"/>
</svg>
