<svg width="20" height="23" viewBox="0 0 20 23" fill="none" xmlns="http://www.w3.org/2000/svg">
<path d="M2.7982 7.0001V1.6001H15.85L19 4.7501V21.4001H13.6M14.5 1.6001V6.1001H19M4.15 15.5501L7.3 12.4001L10.45 15.5501M7.3 12.8501V18.7001M7.3 21.4001C8.97086 21.4001 10.5733 20.7363 11.7548 19.5549C12.9363 18.3734 13.6 16.771 13.6 15.1001C13.6 13.4292 12.9363 11.8268 11.7548 10.6453C10.5733 9.46385 8.97086 8.8001 7.3 8.8001C5.62914 8.8001 4.02671 9.46385 2.84523 10.6453C1.66375 11.8268 1 13.4292 1 15.1001C1 16.771 1.66375 18.3734 2.84523 19.5549C4.02671 20.7363 5.62914 21.4001 7.3 21.4001Z" stroke="white" stroke-width="2"/>
</svg>
