<svg width="26" height="26" viewBox="0 0 26 26" fill="none" xmlns="http://www.w3.org/2000/svg">
<path d="M6.21254 25.5V6.05556H25.657V25.5H6.21254ZM8.99032 11.6111H22.8792V8.83333H8.99032V11.6111ZM14.5459 17.1667H17.3236V14.3889H14.5459V17.1667ZM14.5459 22.7222H17.3236V19.9444H14.5459V22.7222ZM8.99032 17.1667H11.7681V14.3889H8.99032V17.1667ZM20.1014 17.1667H22.8792V14.3889H20.1014V17.1667ZM8.99032 22.7222H11.7681V19.9444H8.99032V22.7222ZM20.1014 22.7222H22.8792V19.9444H20.1014V22.7222ZM0.656982 19.9444V0.5H20.1014V4.66667H17.3236V3.27778H3.43476V17.1667H4.82365V19.9444H0.656982Z" fill="#477E5B"/>
</svg>
